<?xml version="1.0" encoding="utf-8"?>
<!-- Generator: Adobe Illustrator 19.2.1, SVG Export Plug-In . SVG Version: 6.00 Build 0)  -->
<svg version="1.1" id="Layer_1" xmlns="http://www.w3.org/2000/svg" xmlns:xlink="http://www.w3.org/1999/xlink" x="0px" y="0px"
	 viewBox="0 0 400 200" style="enable-background:new 0 0 400 200;" xml:space="preserve">
<style type="text/css">
	.st0{fill:#999999;stroke:#999999;stroke-width:0.5;}
	.st1{fill:#1E2F5D;}
	.st2{fill:#1E2F5D;stroke:#222944;stroke-width:0.5;}
	.st3{font-family:'Montserrat-Bold';}
	.st4{font-size:38.1313px;}
	.st5{fill:#231F20;}
	.st6{font-family:'Montserrat-Regular';}
	.st7{font-size:16.8102px;}
</style>
<g>
	<path class="st0" d="M34.1,66.8c-0.1,0.1-0.3,0.1-0.4,0c-0.1,0-0.2-0.1-0.2-0.2c0.2-0.5,0.4-1.1,0.6-1.9c0.2-0.7,0.3-1.4,0.5-2
		c0-0.6,0.4-1.2,1.1-1.6c1.7-0.9,3.5-1.7,5.6-2.5c2.1-0.8,4.1-1.4,6.1-1.8c3.7-0.8,7.7-1.1,11.7-1.1c5,0,8.9,0.6,11.7,1.7
		c2.8,1.1,4.1,3.1,4.1,6c0,1.4-0.5,2.8-1.4,4.3c-0.9,1.5-2.2,2.9-3.9,4.1c-1.7,1.3-3.7,2.4-6.1,3.3c-2.4,0.9-5,1.5-7.9,1.9
		c-0.6,0.1-0.8,0.3-0.6,0.8c1.2,2.2,2.9,5,5,8.3c2.1,3.3,4.5,6.9,7.2,10.6c1.4,1.9,3,3.7,4.7,5.5c1.7,1.8,3.6,3.4,5.7,4.7
		c2,1.4,4.2,2.5,6.5,3.3c2.3,0.8,4.7,1.2,7.2,1.2c3.8,0,7.6-1,11.3-3c0.4-0.3,0.6-0.2,0.6,0.2c0,0.3-0.1,0.4-0.4,0.5
		c-2,1.1-4.2,2-6.4,2.6c-2.2,0.7-4.6,1-7.1,1c-3.6,0-6.8-0.4-9.5-1.1c-2.7-0.7-5.2-1.9-7.5-3.4c-2.3-1.5-4.5-3.5-6.5-5.9
		c-2.1-2.4-4.2-5.3-6.4-8.8c-0.6-1-1.4-2.3-2.3-3.8c-0.9-1.5-1.8-3-2.8-4.6c-1-1.6-1.9-3.1-2.7-4.6c-0.9-1.5-1.6-2.7-2.1-3.7
		c0-0.3,0.1-0.4,0.3-0.4c2.9,0,5.5-0.3,7.9-0.8c2.4-0.5,4.4-1.3,6.2-2.3c1.7-1,3.1-2.4,4.1-4c1-1.6,1.5-3.5,1.5-5.7
		c0-0.8-0.1-1.6-0.4-2.4s-0.8-1.6-1.5-2.3c-0.7-0.7-1.7-1.2-2.9-1.7c-1.2-0.4-2.7-0.7-4.6-0.7c-0.6,0-1.3,0.1-1.9,0.2
		c-0.6,0.2-1.1,0.5-1.6,1c-0.7,0.8-1.7,2.2-3,4.1c-1.3,1.9-2.7,4.2-4.2,6.7c-1.5,2.5-3.1,5.2-4.8,8.1c-1.7,2.9-3.2,5.6-4.7,8.3
		c-1.5,2.7-2.8,5.1-4,7.3c-1.1,2.2-2,3.9-2.6,5.2C33.4,98,33.3,98,33.1,98c-0.3-0.1-0.6-0.1-1-0.1c-0.3,0-0.6,0-1,0
		c-0.3,0-0.7,0-1.1,0s-0.9,0.1-1.4,0.2c-0.8,0.4-1.5,1-2.2,1.8c-0.1,0-0.3,0-0.4-0.1c-0.2-0.1-0.2-0.2,0-0.3
		c5.8-8.5,10.8-16.1,14.8-22.8s7.5-12.8,10.4-18.3c0.2-0.5,0.2-0.8,0.1-1c-0.1-0.1-0.3-0.2-0.6-0.2c-1.9,0.1-3.8,0.5-5.7,1.1
		c-1.9,0.6-3.7,1.4-5.3,2.3c-1.1,0.6-2.1,1.5-3.1,2.6C35.6,64.3,34.8,65.5,34.1,66.8z"/>
	<path class="st0" d="M97.4,86.7c-1.1,1.3-2.4,2.7-3.9,4.1c-1.5,1.4-3.1,2.7-4.9,3.9c-1.7,1.2-3.6,2.1-5.4,2.9
		c-1.9,0.7-3.7,1.1-5.6,1.1c-3,0-4.5-1.3-4.5-4c0-1.8,0.5-3.7,1.4-5.8c0.9-2.1,2.1-4,3.6-5.7c1.5-1.7,3.1-3.2,4.8-4.4
		c1.7-1.2,3.4-1.8,5-1.8c0.9,0,1.5,0.2,1.9,0.5c0.3,0.3,0.5,0.7,0.5,1.2c0,0.8-0.2,1.6-0.7,2.5c-0.5,0.9-1.2,1.7-2.1,2.5
		c-1,0.8-2.2,1.5-3.6,2c-1.5,0.5-3.2,0.8-5.2,0.8c-0.3,0.6-0.7,1.5-1,2.7S77,91.8,77,93.1c0,2.6,1.2,3.9,3.5,3.9c1.5,0,3-0.3,4.5-1
		c1.6-0.7,3.1-1.6,4.5-2.6c1.5-1,2.8-2.2,4.1-3.4c1.2-1.2,2.3-2.4,3.1-3.5c0.1-0.1,0.3-0.2,0.4-0.1C97.3,86.4,97.4,86.5,97.4,86.7z
		 M87.4,79.3c0-0.8-0.4-1.2-1.2-1.2c-0.6,0-1.3,0.2-2,0.7s-1.3,1.1-2,1.9c-0.6,0.8-1.2,1.6-1.8,2.5c-0.6,0.9-1,1.8-1.4,2.6
		c0.1,0.1,0.3,0.1,0.7,0.1c0.3,0,0.6,0,0.8,0c1.8,0,3.5-0.7,4.9-2C86.7,82.6,87.4,81,87.4,79.3z"/>
	<path class="st0" d="M126.3,85c-1.5,1.8-3.1,3.6-4.8,5.4c-1.7,1.8-3.5,3.4-5.3,4.9c-1.8,1.5-3.5,2.6-5.3,3.5
		c-1.7,0.9-3.4,1.3-4.8,1.3c-1.3,0-2.2-0.3-2.7-1c-0.5-0.6-0.8-1.4-0.8-2.4c0-0.9,0.3-2.1,0.8-3.6c0.5-1.5,1.3-3.1,2.4-4.8
		c-0.8,1.1-1.8,2.2-2.9,3.4c-1.1,1.2-2.2,2.3-3.3,3.3c-1.1,1-2.3,1.8-3.4,2.5c-1.1,0.7-2.2,1-3.1,1c-1.3,0-2-0.7-2-2
		c0-1.5,0.6-3.3,1.7-5.5s2.7-4.4,4.6-6.4c1.9-2.1,4.1-3.8,6.6-5.3c2.5-1.5,5.1-2.2,7.7-2.2c0.3-0.6,0.6-1.1,0.9-1.3
		c0.3-0.3,0.5-0.4,0.8-0.6l2.7-0.8l0.2,0.1c-0.3,0.3-0.6,0.7-0.9,1.2c-0.3,0.5-0.6,1-0.9,1.5c0.3,0,0.8,0,1.4,0.1
		c0.6,0.1,1.1,0.1,1.4,0.2c0.3,0.1,0.5,0.3,0.5,0.5c0,0.2-0.1,0.3-0.3,0.3c-0.4-0.1-1-0.2-1.7-0.3c-0.8-0.1-1.3-0.1-1.7-0.1
		c-2.9,5.1-5.1,9.2-6.4,12.3c-1.4,3-2,5.3-2,6.7c0,0.6,0.1,1,0.4,1.4c0.3,0.4,0.9,0.6,1.8,0.6c1,0,2.2-0.4,3.6-1.1
		c1.4-0.7,2.9-1.7,4.5-3.1c1.6-1.3,3.2-2.8,4.9-4.5c1.7-1.7,3.3-3.5,4.8-5.4c0.1-0.2,0.3-0.2,0.4-0.1
		C126.3,84.7,126.3,84.8,126.3,85z M111.5,77.7c-2.2,0-4.2,0.8-6.2,2.3c-2,1.5-3.7,3.3-5.2,5.4c-1.5,2.1-2.8,4.1-3.7,6.1
		c-0.9,2-1.4,3.5-1.4,4.5c0,0.5,0.2,0.8,0.6,0.8s1-0.3,1.8-0.8c0.8-0.5,1.7-1.2,2.7-2c1-0.9,2.1-1.9,3.1-3c1-1.1,2-2.4,2.9-3.7
		c1-1.5,2-3.1,3-4.9S110.8,79.2,111.5,77.7L111.5,77.7z"/>
	<path class="st0" d="M166.5,35.9c0,0.9-0.4,2.2-1,3.9c-0.7,1.7-1.7,3.7-3,6c-1.3,2.3-2.9,4.7-4.8,7.2c-1.9,2.6-4,5.1-6.4,7.7
		c-2.4,2.5-5,5-7.9,7.3c-2.9,2.3-5.9,4.4-9.2,6.1c-0.6,1-1.4,2.4-2.4,4.1c-1,1.7-2,3.5-3,5.4c-1,1.9-1.8,3.8-2.6,5.6
		c-0.7,1.8-1.1,3.4-1.1,4.7c0,2,0.9,3.1,2.8,3.1c1.6,0,3.2-0.4,5-1.3c1.7-0.9,3.4-2,4.9-3.2c1.6-1.3,3-2.6,4.4-4.1
		c1.4-1.4,2.5-2.7,3.5-3.9c0.4-0.4,0.7-0.6,0.8-0.3c0.1,0.2,0,0.5-0.3,0.7c-1.1,1.4-2.5,2.9-4.1,4.5c-1.6,1.6-3.2,3.1-5,4.4
		c-1.7,1.3-3.6,2.4-5.5,3.3c-1.9,0.9-3.8,1.3-5.7,1.3c-1.7,0-2.8-0.4-3.6-1.2c-0.7-0.8-1.1-1.8-1.1-2.9s0.5-2.8,1.5-4.9
		c1-2.1,2.1-4.4,3.5-6.7c1.3-2.4,2.7-4.6,4-6.7c1.3-2.1,2.3-3.7,3-4.8c1.1-1.8,2.2-3.8,3.4-5.8c1.2-2,2.3-4,3.5-5.9
		c1.1-1.9,2.2-3.7,3.3-5.5c1-1.7,2-3.3,2.9-4.6c1.1-1.7,2.2-3.2,3.3-4.7c1.1-1.5,2.6-2.9,4.4-4.4c2.4-2,4.6-3.6,6.7-4.7
		c2-1.1,3.4-1.6,4.1-1.6c0.5,0,0.9,0.1,1.2,0.4C166.4,34.9,166.5,35.3,166.5,35.9z M162.2,38.4c0-1-0.4-1.5-1.2-1.5
		c-0.3,0-0.7,0.1-1,0.3c-0.4,0.2-0.9,0.6-1.5,1.2c-0.6,0.6-1.3,1.4-2.2,2.5c-0.9,1.1-2,2.5-3.3,4.2c-0.5,0.7-1.2,1.7-2.1,3.1
		c-0.9,1.3-2.1,3.1-3.5,5.3c-1.4,2.2-3.1,4.9-5.1,8.1c-2,3.2-4.4,7-7.1,11.4c3.8-2.2,7.4-4.8,10.7-7.9c3.3-3.1,6.2-6.2,8.6-9.5
		c2.4-3.2,4.3-6.4,5.7-9.4C161.5,43,162.2,40.5,162.2,38.4z"/>
	<path class="st0" d="M258,51.3c0.3,0.3,0.3,0.5-0.2,0.7c-0.2-0.1-0.4-0.1-0.7-0.1c-0.2,0-0.4,0-0.6,0c-0.6,0-1.6,0.2-2.8,0.6
		c-1.2,0.4-3,1.3-5.2,2.9c-2.2,1.5-5,3.9-8.4,7c-3.4,3.1-7.6,7.5-12.5,13c-1.3,1.4-2.8,3.1-4.4,5.1c-1.7,2-3.4,4.1-5.1,6.1
		c-1.7,2.1-3.2,4-4.6,5.9c-1.4,1.9-2.4,3.4-3.1,4.6c-0.1,0.3-0.3,0.5-0.6,0.7c-0.3,0.2-0.5,0.4-0.9,0.4c-0.8,0.1-1.6,0.3-2.4,0.6
		c-0.8,0.3-1.4,0.7-2,1.2c-0.6,0-0.6-0.3-0.2-1c0.2-0.2,0.4-0.9,0.5-2.2c0.2-1.3,0.3-2.8,0.4-4.7c0.1-1.9,0.2-4,0.3-6.3
		c0.1-2.3,0.2-4.7,0.2-7c0-2.4,0.1-4.6,0.1-6.8c0-2.2,0-4,0-5.6c0-0.9-0.2-1.3-0.7-1.3c-0.2,0-0.5,0.2-1,0.5
		c-0.5,0.4-1.4,1.3-2.7,2.5c-1.3,1.2-2.9,2.7-4.7,4.4s-3.8,3.6-6.1,5.7c-2.2,2.1-4.5,4.3-6.7,6.5c-2.3,2.2-4.4,4.4-6.6,6.7
		c-2.1,2.2-4.1,4.3-5.9,6.3c-0.2,0.2-0.4,0.4-0.6,0.6c-0.2,0.2-0.4,0.3-0.6,0.3c-1,0-1.8,0.1-2.5,0.3c-0.7,0.2-1.4,0.5-2.1,0.8
		c-0.4,0-0.5-0.3-0.3-0.9c0.5-0.8,1-1.8,1.6-3c0.5-1.2,1.2-2.7,1.9-4.3c0.3-0.8,0.8-2,1.4-3.8c0.6-1.7,1.3-3.7,2.1-5.9
		c0.8-2.2,1.5-4.5,2.3-6.9c0.8-2.4,1.5-4.6,2.2-6.7c0.7-2.1,1.2-3.9,1.7-5.4c0.4-1.5,0.7-2.5,0.7-2.9c0-0.9-0.5-1.3-1.4-1.3
		c-0.9,0-1.8,0.1-2.7,0.4c-0.9,0.3-1.7,0.4-2.2,0.4c-0.3,0-0.5-0.1-0.5-0.4c0-0.3,0.1-0.4,0.5-0.5c3.1-0.6,5.4-1,7.1-1.4
		c1.7-0.3,2.9-0.6,3.7-0.8c0.8-0.2,1.3-0.3,1.5-0.4c0.2-0.1,0.4-0.1,0.5-0.1c0.3,0,0.5,0.1,0.5,0.4c0,0.3-0.1,0.4-0.3,0.6
		c-0.2,0.2-0.4,0.5-0.7,1s-0.5,1-0.8,1.7c-0.3,0.7-0.6,1.4-0.9,2.1c-0.3,0.8-0.6,1.5-0.9,2.2c-1.7,4.4-3.3,9.1-4.8,14
		c-1.6,5-3,9.8-4.3,14.5c-0.2,0.7-0.2,1.1,0,1.1c0.2,0,0.3,0,0.5-0.2c2.7-2.5,5.7-5.4,8.9-8.5c3.2-3.1,6.5-6.3,9.8-9.5
		c3.3-3.2,6.6-6.3,9.8-9.3c3.2-3,6.1-5.7,8.8-8.2c0.2-0.1,0.4,0,0.5,0.2c0.2,0.2,0.2,0.3,0,0.5c-0.3,0.1-0.6,0.4-0.9,0.8
		c-0.3,0.4-0.4,0.8-0.5,1.2c-0.1,1.1-0.3,2.4-0.4,4.1c-0.1,1.7-0.2,3.4-0.3,5.3c-0.1,1.9-0.2,3.9-0.2,5.9c0,2,0,4,0,5.9
		c0,2.9,0,5.4,0.1,7.3c0.1,2,0.1,3.6,0.1,4.8c0,0.4,0.1,0.7,0.2,0.7c0.2,0,0.4-0.1,0.6-0.4c1.1-1.4,2.4-2.9,3.8-4.5
		c1.4-1.6,2.8-3.3,4.2-5c1.4-1.7,2.9-3.4,4.3-5.1c1.4-1.7,2.7-3.2,4-4.6c1.5-1.7,3.1-3.4,4.8-5.2c1.7-1.8,3.4-3.7,5.2-5.4
		c1.7-1.8,3.4-3.5,5.1-5.1c1.7-1.7,3.1-3.1,4.5-4.3c1.2-1.1,2.5-2.1,3.8-3c1.3-1,2.8-1.4,4.4-1.4c0.1,0,0.4,0,0.7,0.1
		c0.3,0.1,0.7,0.2,1,0.3c0.3,0.1,0.7,0.3,1,0.4C257.8,51.2,257.9,51.3,258,51.3z"/>
	<path class="st0" d="M251.8,86.7c-1.1,1.3-2.4,2.7-3.9,4.1c-1.5,1.4-3.1,2.7-4.9,3.9c-1.7,1.2-3.6,2.1-5.4,2.9
		c-1.9,0.7-3.7,1.1-5.6,1.1c-3,0-4.5-1.3-4.5-4c0-1.8,0.5-3.7,1.4-5.8c0.9-2.1,2.1-4,3.6-5.7c1.5-1.7,3.1-3.2,4.8-4.4
		c1.7-1.2,3.4-1.8,5-1.8c0.9,0,1.5,0.2,1.9,0.5c0.3,0.3,0.5,0.7,0.5,1.2c0,0.8-0.2,1.6-0.7,2.5c-0.5,0.9-1.2,1.7-2.1,2.5
		c-1,0.8-2.2,1.5-3.6,2c-1.5,0.5-3.2,0.8-5.2,0.8c-0.3,0.6-0.7,1.5-1,2.7s-0.6,2.5-0.6,3.8c0,2.6,1.2,3.9,3.5,3.9c1.5,0,3-0.3,4.5-1
		c1.6-0.7,3.1-1.6,4.5-2.6c1.5-1,2.8-2.2,4.1-3.4s2.3-2.4,3.1-3.5c0.1-0.1,0.3-0.2,0.4-0.1C251.7,86.4,251.8,86.5,251.8,86.7z
		 M241.8,79.3c0-0.8-0.4-1.2-1.2-1.2c-0.6,0-1.3,0.2-2,0.7c-0.7,0.5-1.3,1.1-2,1.9c-0.6,0.8-1.2,1.6-1.8,2.5c-0.6,0.9-1,1.8-1.4,2.6
		c0.1,0.1,0.3,0.1,0.7,0.1c0.3,0,0.6,0,0.8,0c1.8,0,3.5-0.7,4.9-2C241.1,82.6,241.8,81,241.8,79.3z"/>
	<path class="st0" d="M280.7,85c-1.5,1.8-3.1,3.6-4.8,5.4c-1.7,1.8-3.5,3.4-5.3,4.9c-1.8,1.5-3.5,2.6-5.3,3.5
		c-1.7,0.9-3.4,1.3-4.8,1.3c-1.3,0-2.2-0.3-2.7-1c-0.5-0.6-0.8-1.4-0.8-2.4c0-0.9,0.3-2.1,0.8-3.6c0.5-1.5,1.3-3.1,2.4-4.8
		c-0.8,1.1-1.8,2.2-2.9,3.4c-1.1,1.2-2.2,2.3-3.3,3.3c-1.1,1-2.3,1.8-3.4,2.5c-1.1,0.7-2.2,1-3.1,1c-1.3,0-2-0.7-2-2
		c0-1.5,0.6-3.3,1.7-5.5c1.1-2.2,2.7-4.4,4.6-6.4c1.9-2.1,4.1-3.8,6.6-5.3c2.5-1.5,5.1-2.2,7.7-2.2c0.3-0.6,0.6-1.1,0.9-1.3
		c0.3-0.3,0.5-0.4,0.8-0.6l2.7-0.8l0.2,0.1c-0.3,0.3-0.6,0.7-0.9,1.2c-0.3,0.5-0.6,1-0.9,1.5c0.3,0,0.8,0,1.4,0.1
		c0.6,0.1,1.1,0.1,1.4,0.2c0.3,0.1,0.5,0.3,0.5,0.5c0,0.2-0.1,0.3-0.3,0.3c-0.4-0.1-1-0.2-1.7-0.3c-0.8-0.1-1.3-0.1-1.7-0.1
		c-2.9,5.1-5.1,9.2-6.4,12.3c-1.4,3-2,5.3-2,6.7c0,0.6,0.1,1,0.4,1.4c0.3,0.4,0.9,0.6,1.8,0.6c1,0,2.2-0.4,3.6-1.1s2.9-1.7,4.5-3.1
		c1.6-1.3,3.2-2.8,4.9-4.5c1.7-1.7,3.3-3.5,4.8-5.4c0.1-0.2,0.3-0.2,0.4-0.1C280.6,84.7,280.7,84.8,280.7,85z M265.8,77.7
		c-2.2,0-4.2,0.8-6.2,2.3c-2,1.5-3.7,3.3-5.2,5.4c-1.5,2.1-2.8,4.1-3.7,6.1c-0.9,2-1.4,3.5-1.4,4.5c0,0.5,0.2,0.8,0.6,0.8
		s1-0.3,1.8-0.8c0.8-0.5,1.7-1.2,2.7-2c1-0.9,2.1-1.9,3.1-3c1-1.1,2-2.4,2.9-3.7c1-1.5,2-3.1,3-4.9
		C264.3,80.7,265.1,79.2,265.8,77.7L265.8,77.7z"/>
	<path class="st0" d="M320.9,35.9c0,0.9-0.4,2.2-1,3.9c-0.7,1.7-1.7,3.7-3,6c-1.3,2.3-2.9,4.7-4.8,7.2c-1.9,2.6-4,5.1-6.4,7.7
		c-2.4,2.5-5,5-7.9,7.3c-2.9,2.3-5.9,4.4-9.2,6.1c-0.6,1-1.4,2.4-2.4,4.1c-1,1.7-2,3.5-3,5.4c-1,1.9-1.8,3.8-2.6,5.6
		c-0.7,1.8-1.1,3.4-1.1,4.7c0,2,0.9,3.1,2.8,3.1c1.6,0,3.2-0.4,5-1.3c1.7-0.9,3.4-2,4.9-3.2c1.6-1.3,3-2.6,4.4-4.1
		c1.4-1.4,2.5-2.7,3.5-3.9c0.4-0.4,0.7-0.6,0.8-0.3c0.1,0.2,0,0.5-0.3,0.7c-1.1,1.4-2.5,2.9-4.1,4.5c-1.6,1.6-3.2,3.1-5,4.4
		c-1.7,1.3-3.6,2.4-5.5,3.3c-1.9,0.9-3.8,1.3-5.7,1.3c-1.7,0-2.8-0.4-3.6-1.2c-0.7-0.8-1.1-1.8-1.1-2.9s0.5-2.8,1.5-4.9
		c1-2.1,2.1-4.4,3.5-6.7c1.3-2.4,2.7-4.6,4-6.7c1.3-2.1,2.3-3.7,3-4.8c1.1-1.8,2.2-3.8,3.4-5.8s2.3-4,3.5-5.9
		c1.1-1.9,2.2-3.7,3.3-5.5c1-1.7,2-3.3,2.9-4.6c1.1-1.7,2.2-3.2,3.3-4.7c1.1-1.5,2.6-2.9,4.4-4.4c2.4-2,4.6-3.6,6.7-4.7
		c2-1.1,3.4-1.6,4.1-1.6c0.5,0,0.9,0.1,1.2,0.4C320.7,34.9,320.9,35.3,320.9,35.9z M316.6,38.4c0-1-0.4-1.5-1.2-1.5
		c-0.3,0-0.7,0.1-1,0.3c-0.4,0.2-0.9,0.6-1.5,1.2c-0.6,0.6-1.3,1.4-2.2,2.5c-0.9,1.1-2,2.5-3.3,4.2c-0.5,0.7-1.2,1.7-2.1,3.1
		c-0.9,1.3-2.1,3.1-3.5,5.3c-1.4,2.2-3.1,4.9-5.1,8.1c-2,3.2-4.4,7-7.1,11.4c3.8-2.2,7.4-4.8,10.7-7.9c3.3-3.1,6.2-6.2,8.6-9.5
		c2.4-3.2,4.3-6.4,5.7-9.4C315.9,43,316.6,40.5,316.6,38.4z"/>
	<path class="st0" d="M317.8,63.3c-0.5,0.1-1.1,0.4-1.7,0.7c-0.6,0.4-1.1,0.8-1.4,1.3c-1.5,2-2.9,4.2-4.2,6.4
		c-1.4,2.2-2.7,4.4-4,6.7h11.8c0.2,0.1,0.3,0.3,0.3,0.4c0,0.1-0.1,0.2-0.2,0.3c-0.5,0-1.3,0-2.3,0c-1,0-2.1,0.1-3.3,0.1
		c-1.2,0.1-2.4,0.1-3.7,0.2c-1.3,0.1-2.4,0.1-3.3,0.2c-1.8,3.2-3.1,5.9-4.1,8.1c-1,2.2-1.4,4.2-1.4,5.8c0,2.3,1,3.4,3.1,3.4
		c1,0,2.2-0.3,3.5-0.8c1.3-0.5,2.7-1.3,4.1-2.1c0.2-0.2,0.4-0.2,0.6,0c0.2,0.2,0.1,0.4-0.2,0.5c-2.2,1.4-4.2,2.4-6,3.1
		c-1.8,0.6-3.7,1-5.6,1c-1,0-1.9-0.3-2.7-0.9c-0.8-0.6-1.1-1.6-1.1-3.1c0-1.3,0.6-3.1,1.7-5.6s2.8-5.5,5.1-9.2
		c-0.8,0.1-1.7,0.1-2.8,0.2c-1.1,0.1-1.8,0.1-2,0.1c-0.3,0-0.5-0.1-0.5-0.4c0.3-0.4,0.7-0.9,1.2-1.3l4.9-0.1c0.6-1,1.2-2,1.9-3.2
		c0.7-1.2,1.4-2.3,2.1-3.5c0.7-1.2,1.4-2.3,2.1-3.4c0.7-1.1,1.4-2.1,2-3.1c0.7-0.3,1.7-0.7,2.9-1.2c1.2-0.5,2.3-0.9,3.3-1.2
		c0.1,0,0.2,0.1,0.3,0.2C318.2,63,318.1,63.1,317.8,63.3z"/>
	<path class="st0" d="M377.3,35.2c0,1,0,1.8-0.1,2.3c-0.1,0.5-0.2,0.9-0.3,1c-0.1,0.2-0.2,0.2-0.3,0.1c-0.1-0.1-0.1-0.2-0.1-0.3
		c0-0.4-0.1-1-0.3-1.8c-0.2-0.8-0.7-1.5-1.3-2.2c-0.7-0.7-1.6-1.4-2.8-1.9c-1.2-0.5-2.8-0.8-4.7-0.8c-1.7,0-3.4,0.2-5.1,0.7
		c-1.7,0.5-3.6,1.4-5.7,2.8c-2,1.4-4.2,3.3-6.5,5.7c-2.3,2.4-4.8,5.5-7.6,9.4c-2.7,3.8-5.7,8.5-8.9,14c-3.2,5.5-6.7,12-10.5,19.5
		c0.4-0.4,1.1-1,2.1-1.7s2-1.5,3.1-2.3c1.1-0.8,2.3-1.4,3.3-2c1.1-0.6,2-0.9,2.8-0.9c0.6,0,0.9,0.2,0.9,0.7c0,0.4-0.3,1-0.9,1.7
		c-0.5,0.8-1.2,1.8-2,3.1c-0.8,1.3-1.6,2.8-2.4,4.3c-0.8,1.5-1.5,3-2,4.5c-0.6,1.5-0.9,2.6-0.9,3.5c0,1,0.3,1.8,0.8,2.3
		c0.5,0.5,1.2,0.8,2.1,0.8c1.5,0,3.5-1,6.2-2.9c2.7-1.9,5.7-5.1,9.2-9.7c0.1-0.1,0.3-0.2,0.4-0.2c0.1,0,0.2,0.1,0.2,0.4
		c-1.2,1.7-2.6,3.4-4.2,5.1c-1.6,1.7-3.3,3.3-5,4.7c-1.7,1.4-3.4,2.5-5.1,3.4c-1.7,0.9-3.2,1.3-4.6,1.3c-1.1,0-1.9-0.3-2.6-0.9
		c-0.6-0.6-1-1.4-1-2.5c0-1,0.3-2.3,1-3.9c0.7-1.6,1.5-3.2,2.3-4.8c0.9-1.6,1.6-3.1,2.3-4.5c0.7-1.4,1-2.3,1-2.9
		c0-0.3-0.1-0.5-0.3-0.5c-0.6,0-1.6,0.5-3.1,1.6c-1.5,1.1-3.4,3.1-5.6,6.1c-0.9,1.6-1.8,3.2-2.8,5s-1.8,3.2-2.5,4.6
		c-0.5,1-1,1.5-1.4,1.5c-0.3,0-0.7-0.1-1.2-0.2c-0.5-0.2-0.8-0.5-0.8-0.9c0-0.3,0.1-0.7,0.3-1c2.7-4.8,5.3-9.4,7.8-13.7
		c2.5-4.3,5.1-8.5,7.7-12.6c3.1-4.8,6.2-9.6,9.5-14.6c3.3-5,6.6-9.5,10.1-13.5c3.4-4.1,6.9-7.4,10.4-10c3.5-2.6,7.1-3.9,10.6-3.9
		c0.9,0,1.8,0.1,2.8,0.3c1,0.2,1.9,0.6,2.7,1.1c0.9,0.5,1.6,1.2,2.1,2.1C377,32.6,377.3,33.8,377.3,35.2z"/>
</g>
<g>
	<g>
		<path class="st1" d="M366.4,36.7c1.9,0,3.4,1.6,3.4,3.5c0,2-1.5,3.5-3.5,3.5c-1.9,0-3.5-1.5-3.5-3.5
			C362.9,38.3,364.5,36.7,366.4,36.7L366.4,36.7z M366.4,37.3c-1.5,0-2.8,1.3-2.8,3c0,1.7,1.3,3,2.8,3c1.6,0,2.8-1.3,2.8-3
			C369.2,38.6,368,37.3,366.4,37.3L366.4,37.3L366.4,37.3z M365.7,42.3h-0.6v-3.9c0.3,0,0.6-0.1,1.1-0.1c0.6,0,1,0.1,1.2,0.3
			c0.2,0.2,0.4,0.4,0.4,0.8c0,0.5-0.3,0.8-0.8,1v0c0.3,0.1,0.6,0.4,0.7,1c0.1,0.6,0.2,0.8,0.3,1h-0.7c-0.1-0.1-0.2-0.5-0.3-1
			c-0.1-0.5-0.3-0.7-0.8-0.7h-0.4L365.7,42.3L365.7,42.3z M365.7,40.1h0.5c0.5,0,1-0.2,1-0.7c0-0.3-0.3-0.7-1-0.7
			c-0.2,0-0.3,0-0.5,0V40.1z"/>
	</g>
	<g>
		<path class="st2" d="M34.6,65.5c-0.1,0.1-0.3,0.1-0.4,0c-0.1,0-0.2-0.1-0.2-0.2c0.2-0.5,0.4-1.1,0.6-1.9c0.2-0.7,0.3-1.4,0.5-2
			c0-0.6,0.4-1.2,1.1-1.6c1.7-0.9,3.5-1.7,5.6-2.5c2.1-0.8,4.1-1.4,6.1-1.8c3.7-0.8,7.7-1.1,11.7-1.1c5,0,8.9,0.6,11.7,1.7
			c2.8,1.1,4.1,3.1,4.1,6c0,1.4-0.5,2.8-1.4,4.3c-0.9,1.5-2.2,2.9-3.9,4.1c-1.7,1.3-3.7,2.4-6.1,3.3c-2.4,0.9-5,1.5-7.9,1.9
			c-0.6,0.1-0.8,0.3-0.6,0.8c1.2,2.2,2.9,5,5,8.3c2.1,3.3,4.5,6.9,7.2,10.6c1.4,1.9,3,3.7,4.7,5.5c1.7,1.8,3.6,3.4,5.7,4.7
			c2,1.4,4.2,2.5,6.5,3.3c2.3,0.8,4.7,1.2,7.2,1.2c3.8,0,7.6-1,11.3-3c0.4-0.3,0.6-0.2,0.6,0.2c0,0.3-0.1,0.4-0.4,0.5
			c-2,1.1-4.2,2-6.4,2.6c-2.2,0.7-4.6,1-7.1,1c-3.6,0-6.8-0.4-9.5-1.1c-2.7-0.7-5.2-1.9-7.5-3.4c-2.3-1.5-4.5-3.5-6.5-5.9
			c-2.1-2.4-4.2-5.3-6.4-8.8c-0.6-1-1.4-2.3-2.3-3.8c-0.9-1.5-1.8-3-2.8-4.6c-1-1.6-1.9-3.1-2.7-4.6c-0.9-1.5-1.6-2.7-2.1-3.7
			c0-0.3,0.1-0.4,0.3-0.4c2.9,0,5.5-0.3,7.9-0.8c2.4-0.5,4.4-1.3,6.2-2.3s3.1-2.4,4.1-4c1-1.6,1.5-3.5,1.5-5.7
			c0-0.8-0.1-1.6-0.4-2.4s-0.8-1.6-1.5-2.3c-0.7-0.7-1.7-1.2-2.9-1.7c-1.2-0.4-2.7-0.7-4.6-0.7c-0.6,0-1.3,0.1-1.9,0.2
			c-0.6,0.2-1.1,0.5-1.6,1c-0.7,0.8-1.7,2.2-3,4.1c-1.3,1.9-2.7,4.2-4.2,6.7c-1.5,2.5-3.1,5.2-4.8,8.1c-1.7,2.9-3.2,5.6-4.7,8.3
			c-1.5,2.7-2.8,5.1-4,7.3c-1.1,2.2-2,3.9-2.6,5.2c-0.1,0.1-0.2,0.2-0.4,0.2c-0.3-0.1-0.6-0.1-1-0.1c-0.3,0-0.6,0-1,0
			c-0.3,0-0.7,0-1.1,0s-0.9,0.1-1.4,0.2c-0.8,0.4-1.5,1-2.2,1.8c-0.1,0-0.3,0-0.4-0.1c-0.2-0.1-0.2-0.2,0-0.3
			c5.8-8.5,10.8-16.1,14.8-22.8s7.5-12.8,10.4-18.3c0.2-0.5,0.2-0.8,0.1-1c-0.1-0.1-0.3-0.2-0.6-0.2c-1.9,0.1-3.8,0.5-5.7,1.1
			c-1.9,0.6-3.7,1.4-5.3,2.3C39,60.1,38,60.9,37,62C36.1,63.1,35.3,64.3,34.6,65.5z"/>
		<path class="st2" d="M97.9,85.5c-1.1,1.3-2.4,2.7-3.9,4.1c-1.5,1.4-3.1,2.7-4.9,3.9c-1.7,1.2-3.6,2.1-5.4,2.9
			c-1.9,0.7-3.7,1.1-5.6,1.1c-3,0-4.5-1.3-4.5-4c0-1.8,0.5-3.7,1.4-5.8c0.9-2.1,2.1-4,3.6-5.7c1.5-1.7,3.1-3.2,4.8-4.4
			c1.7-1.2,3.4-1.8,5-1.8c0.9,0,1.5,0.2,1.9,0.5c0.3,0.3,0.5,0.7,0.5,1.2c0,0.8-0.2,1.6-0.7,2.5c-0.5,0.9-1.2,1.7-2.1,2.5
			c-1,0.8-2.2,1.5-3.6,2c-1.5,0.5-3.2,0.8-5.2,0.8c-0.3,0.6-0.7,1.5-1,2.7c-0.4,1.2-0.6,2.5-0.6,3.8c0,2.6,1.2,3.9,3.5,3.9
			c1.5,0,3-0.3,4.5-1c1.6-0.7,3.1-1.6,4.5-2.6c1.5-1,2.8-2.2,4.1-3.4c1.2-1.2,2.3-2.4,3.1-3.5c0.1-0.1,0.3-0.2,0.4-0.1
			C97.8,85.1,97.9,85.3,97.9,85.5z M87.9,78c0-0.8-0.4-1.2-1.2-1.2c-0.6,0-1.3,0.2-2,0.7s-1.3,1.1-2,1.9c-0.6,0.8-1.2,1.6-1.8,2.5
			c-0.6,0.9-1,1.7-1.4,2.6c0.1,0.1,0.3,0.1,0.7,0.1c0.3,0,0.6,0,0.8,0c1.8,0,3.5-0.7,4.9-2C87.2,81.4,87.9,79.8,87.9,78z"/>
		<path class="st2" d="M126.8,83.8c-1.5,1.8-3.1,3.6-4.8,5.4c-1.7,1.8-3.5,3.4-5.3,4.9c-1.8,1.5-3.5,2.6-5.3,3.5
			c-1.7,0.9-3.4,1.3-4.8,1.3c-1.3,0-2.2-0.3-2.7-1c-0.5-0.6-0.8-1.4-0.8-2.4c0-0.9,0.3-2.1,0.8-3.6c0.5-1.5,1.3-3.1,2.4-4.8
			c-0.8,1.1-1.8,2.2-2.9,3.4c-1.1,1.2-2.2,2.3-3.3,3.3c-1.1,1-2.3,1.8-3.4,2.5c-1.1,0.7-2.2,1-3.1,1c-1.3,0-2-0.7-2-2
			c0-1.5,0.6-3.3,1.7-5.5c1.1-2.2,2.7-4.4,4.6-6.4c1.9-2.1,4.1-3.8,6.6-5.3c2.5-1.5,5.1-2.2,7.7-2.2c0.3-0.6,0.6-1.1,0.9-1.3
			c0.3-0.3,0.5-0.4,0.8-0.6l2.7-0.8l0.2,0.1c-0.3,0.3-0.6,0.7-0.9,1.2c-0.3,0.5-0.6,1-0.9,1.5c0.3,0,0.8,0,1.4,0.1
			c0.6,0.1,1.1,0.1,1.4,0.2c0.3,0.1,0.5,0.3,0.5,0.5c0,0.2-0.1,0.3-0.3,0.3c-0.4-0.1-1-0.2-1.7-0.3c-0.8-0.1-1.3-0.1-1.7-0.1
			c-2.9,5.1-5.1,9.2-6.4,12.3c-1.4,3-2,5.3-2,6.7c0,0.6,0.1,1,0.4,1.4c0.3,0.4,0.9,0.6,1.8,0.6c1,0,2.2-0.4,3.6-1.1
			c1.4-0.7,2.9-1.7,4.5-3.1c1.6-1.3,3.2-2.8,4.9-4.5c1.7-1.7,3.3-3.5,4.8-5.4c0.1-0.2,0.3-0.2,0.4-0.1
			C126.8,83.4,126.8,83.6,126.8,83.8z M112,76.5c-2.2,0-4.2,0.8-6.2,2.3c-2,1.5-3.7,3.3-5.2,5.4c-1.5,2.1-2.8,4.1-3.7,6.1
			c-0.9,2-1.4,3.5-1.4,4.5c0,0.5,0.2,0.8,0.6,0.8s1-0.3,1.8-0.8c0.8-0.5,1.7-1.2,2.7-2.1c1-0.9,2.1-1.9,3.1-3c1-1.1,2-2.4,2.9-3.7
			c1-1.5,2-3.1,3-4.9C110.4,79.5,111.3,77.9,112,76.5L112,76.5z"/>
		<path class="st2" d="M167,34.7c0,0.9-0.4,2.2-1,3.9c-0.7,1.7-1.7,3.7-3,6c-1.3,2.3-2.9,4.7-4.8,7.2c-1.9,2.6-4,5.1-6.4,7.7
			c-2.4,2.5-5,5-7.9,7.3c-2.9,2.3-5.9,4.4-9.2,6.1c-0.6,1-1.4,2.4-2.4,4.1c-1,1.7-2,3.5-3,5.4c-1,1.9-1.8,3.8-2.6,5.6
			c-0.7,1.8-1.1,3.4-1.1,4.7c0,2,0.9,3.1,2.8,3.1c1.6,0,3.2-0.4,5-1.3c1.7-0.9,3.4-2,4.9-3.2c1.6-1.3,3-2.6,4.4-4.1
			c1.4-1.4,2.5-2.7,3.5-3.9c0.4-0.4,0.7-0.6,0.8-0.3c0.1,0.2,0,0.5-0.3,0.7c-1.1,1.4-2.5,2.9-4.1,4.5c-1.6,1.6-3.2,3.1-5,4.4
			c-1.7,1.3-3.6,2.4-5.5,3.3c-1.9,0.9-3.8,1.3-5.7,1.3c-1.7,0-2.8-0.4-3.6-1.2c-0.7-0.8-1.1-1.8-1.1-2.9s0.5-2.8,1.5-4.9
			c1-2.1,2.1-4.4,3.5-6.7c1.3-2.4,2.7-4.6,4-6.7s2.3-3.7,3-4.8c1.1-1.8,2.2-3.8,3.4-5.8c1.2-2,2.3-4,3.5-5.9
			c1.1-1.9,2.2-3.7,3.3-5.5c1-1.7,2-3.3,2.9-4.6c1.1-1.7,2.2-3.2,3.3-4.7c1.1-1.5,2.6-2.9,4.4-4.4c2.4-2,4.6-3.6,6.7-4.7
			c2-1.1,3.4-1.6,4.1-1.6c0.5,0,0.9,0.1,1.2,0.4C166.8,33.7,167,34.1,167,34.7z M162.7,37.1c0-1-0.4-1.5-1.2-1.5
			c-0.3,0-0.7,0.1-1,0.3c-0.4,0.2-0.9,0.6-1.5,1.2c-0.6,0.6-1.3,1.4-2.2,2.5c-0.9,1.1-2,2.5-3.3,4.2c-0.5,0.7-1.2,1.7-2.1,3
			c-0.9,1.3-2.1,3.1-3.5,5.3s-3.1,4.9-5.1,8.1c-2,3.2-4.4,7-7.1,11.4c3.8-2.2,7.4-4.8,10.7-7.9c3.3-3.1,6.2-6.2,8.6-9.5
			c2.4-3.2,4.3-6.4,5.7-9.4C162,41.8,162.7,39.2,162.7,37.1z"/>
		<path class="st2" d="M258.5,50.1c0.3,0.3,0.3,0.5-0.2,0.7c-0.2-0.1-0.4-0.1-0.7-0.1c-0.2,0-0.4,0-0.6,0c-0.6,0-1.6,0.2-2.8,0.6
			s-3,1.3-5.2,2.9c-2.2,1.5-5,3.9-8.4,7c-3.4,3.1-7.6,7.5-12.5,13c-1.3,1.4-2.8,3.1-4.4,5.1c-1.7,2-3.4,4.1-5.1,6.1
			c-1.7,2.1-3.2,4-4.6,5.9c-1.4,1.9-2.4,3.4-3.1,4.6c-0.1,0.3-0.3,0.5-0.6,0.7c-0.3,0.2-0.5,0.4-0.9,0.4c-0.8,0.1-1.6,0.3-2.4,0.6
			c-0.8,0.3-1.4,0.7-2,1.2c-0.6,0-0.6-0.3-0.2-1c0.2-0.2,0.4-0.9,0.5-2.2c0.2-1.3,0.3-2.8,0.4-4.7c0.1-1.9,0.2-4,0.3-6.3
			c0.1-2.3,0.2-4.7,0.2-7c0-2.4,0.1-4.6,0.1-6.8c0-2.2,0-4,0-5.6c0-0.9-0.2-1.3-0.7-1.3c-0.2,0-0.5,0.2-1,0.5
			c-0.5,0.4-1.4,1.3-2.7,2.5c-1.3,1.2-2.9,2.7-4.7,4.4c-1.8,1.7-3.8,3.6-6.1,5.7c-2.2,2.1-4.5,4.3-6.7,6.5c-2.3,2.2-4.4,4.4-6.6,6.7
			c-2.1,2.2-4.1,4.3-5.9,6.3c-0.2,0.2-0.4,0.4-0.6,0.6c-0.2,0.2-0.4,0.3-0.6,0.3c-1,0-1.8,0.1-2.5,0.3c-0.7,0.2-1.4,0.5-2.1,0.8
			c-0.4,0-0.5-0.3-0.3-0.9c0.5-0.8,1-1.8,1.6-3c0.5-1.2,1.2-2.7,1.9-4.3c0.3-0.8,0.8-2,1.4-3.8c0.6-1.7,1.3-3.7,2.1-5.9
			c0.8-2.2,1.5-4.5,2.3-6.9c0.8-2.4,1.5-4.6,2.2-6.7s1.2-3.9,1.7-5.4c0.4-1.5,0.7-2.5,0.7-2.9c0-0.9-0.5-1.3-1.4-1.3
			c-0.9,0-1.8,0.1-2.7,0.4c-0.9,0.3-1.7,0.4-2.2,0.4c-0.3,0-0.5-0.1-0.5-0.4c0-0.3,0.1-0.4,0.5-0.5c3.1-0.6,5.4-1,7.1-1.4
			c1.7-0.3,2.9-0.6,3.7-0.8c0.8-0.2,1.3-0.3,1.5-0.4c0.2-0.1,0.4-0.1,0.5-0.1c0.3,0,0.5,0.1,0.5,0.4c0,0.3-0.1,0.4-0.3,0.6
			c-0.2,0.2-0.4,0.5-0.7,1s-0.5,1-0.8,1.7c-0.3,0.7-0.6,1.4-0.9,2.1c-0.3,0.8-0.6,1.5-0.9,2.2c-1.7,4.4-3.3,9.1-4.8,14
			c-1.6,5-3,9.8-4.3,14.5c-0.2,0.7-0.2,1.1,0,1.1c0.2,0,0.3,0,0.5-0.2c2.7-2.5,5.7-5.4,8.9-8.5c3.2-3.1,6.5-6.3,9.8-9.5
			c3.3-3.2,6.6-6.3,9.8-9.3c3.2-3,6.1-5.7,8.8-8.2c0.2-0.1,0.4,0,0.5,0.2c0.2,0.2,0.2,0.3,0,0.5c-0.3,0.1-0.6,0.4-0.9,0.8
			c-0.3,0.4-0.4,0.8-0.5,1.2c-0.1,1.1-0.3,2.4-0.4,4.1c-0.1,1.7-0.2,3.4-0.3,5.3c-0.1,1.9-0.2,3.9-0.2,5.9c0,2,0,4,0,5.9
			c0,2.9,0,5.4,0.1,7.3c0.1,2,0.1,3.6,0.1,4.8c0,0.4,0.1,0.7,0.2,0.7c0.2,0,0.4-0.1,0.6-0.4c1.1-1.4,2.4-2.9,3.8-4.5
			c1.4-1.6,2.8-3.3,4.2-5c1.4-1.7,2.9-3.4,4.3-5.1c1.4-1.7,2.7-3.2,4-4.6c1.5-1.7,3.1-3.4,4.8-5.2c1.7-1.8,3.4-3.7,5.2-5.4
			c1.7-1.8,3.4-3.5,5.1-5.1c1.7-1.7,3.1-3.1,4.5-4.3c1.2-1.1,2.5-2.1,3.8-3c1.3-1,2.8-1.4,4.4-1.4c0.1,0,0.4,0,0.7,0.1
			c0.3,0.1,0.7,0.2,1,0.3c0.3,0.1,0.7,0.3,1,0.4C258.2,49.9,258.4,50,258.5,50.1z"/>
		<path class="st2" d="M252.2,85.5c-1.1,1.3-2.4,2.7-3.9,4.1c-1.5,1.4-3.1,2.7-4.9,3.9c-1.7,1.2-3.6,2.1-5.4,2.9
			c-1.9,0.7-3.7,1.1-5.6,1.1c-3,0-4.5-1.3-4.5-4c0-1.8,0.5-3.7,1.4-5.8c0.9-2.1,2.1-4,3.6-5.7c1.5-1.7,3.1-3.2,4.8-4.4
			c1.7-1.2,3.4-1.8,5-1.8c0.9,0,1.5,0.2,1.9,0.5c0.3,0.3,0.5,0.7,0.5,1.2c0,0.8-0.2,1.6-0.7,2.5c-0.5,0.9-1.2,1.7-2.1,2.5
			c-1,0.8-2.2,1.5-3.6,2c-1.5,0.5-3.2,0.8-5.2,0.8c-0.3,0.6-0.7,1.5-1,2.7c-0.4,1.2-0.6,2.5-0.6,3.8c0,2.6,1.2,3.9,3.5,3.9
			c1.5,0,3-0.3,4.5-1c1.6-0.7,3.1-1.6,4.5-2.6c1.5-1,2.8-2.2,4.1-3.4c1.2-1.2,2.3-2.4,3.1-3.5c0.1-0.1,0.3-0.2,0.4-0.1
			C252.2,85.1,252.2,85.3,252.2,85.5z M242.2,78c0-0.8-0.4-1.2-1.2-1.2c-0.6,0-1.3,0.2-2,0.7c-0.7,0.5-1.3,1.1-2,1.9
			c-0.6,0.8-1.2,1.6-1.8,2.5c-0.6,0.9-1,1.7-1.4,2.6c0.1,0.1,0.3,0.1,0.7,0.1c0.3,0,0.6,0,0.8,0c1.8,0,3.5-0.7,4.9-2
			C241.5,81.4,242.2,79.8,242.2,78z"/>
		<path class="st2" d="M281.2,83.8c-1.5,1.8-3.1,3.6-4.8,5.4c-1.7,1.8-3.5,3.4-5.3,4.9c-1.8,1.5-3.5,2.6-5.3,3.5
			c-1.7,0.9-3.4,1.3-4.8,1.3c-1.3,0-2.2-0.3-2.7-1c-0.5-0.6-0.8-1.4-0.8-2.4c0-0.9,0.3-2.1,0.8-3.6c0.5-1.5,1.3-3.1,2.4-4.8
			c-0.8,1.1-1.8,2.2-2.9,3.4c-1.1,1.2-2.2,2.3-3.3,3.3c-1.1,1-2.3,1.8-3.4,2.5c-1.1,0.7-2.2,1-3.1,1c-1.3,0-2-0.7-2-2
			c0-1.5,0.6-3.3,1.7-5.5c1.1-2.2,2.7-4.4,4.6-6.4c1.9-2.1,4.1-3.8,6.6-5.3c2.5-1.5,5.1-2.2,7.7-2.2c0.3-0.6,0.6-1.1,0.9-1.3
			c0.3-0.3,0.5-0.4,0.8-0.6l2.7-0.8l0.2,0.1c-0.3,0.3-0.6,0.7-0.9,1.2c-0.3,0.5-0.6,1-0.9,1.5c0.3,0,0.8,0,1.4,0.1
			c0.6,0.1,1.1,0.1,1.4,0.2c0.3,0.1,0.5,0.3,0.5,0.5c0,0.2-0.1,0.3-0.3,0.3c-0.4-0.1-1-0.2-1.7-0.3c-0.8-0.1-1.3-0.1-1.7-0.1
			c-2.9,5.1-5.1,9.2-6.4,12.3c-1.4,3-2,5.3-2,6.7c0,0.6,0.1,1,0.4,1.4c0.3,0.4,0.9,0.6,1.8,0.6c1,0,2.2-0.4,3.6-1.1
			c1.4-0.7,2.9-1.7,4.5-3.1c1.6-1.3,3.2-2.8,4.9-4.5c1.7-1.7,3.3-3.5,4.8-5.4c0.1-0.2,0.3-0.2,0.4-0.1
			C281.1,83.4,281.2,83.6,281.2,83.8z M266.3,76.5c-2.2,0-4.2,0.8-6.2,2.3c-2,1.5-3.7,3.3-5.2,5.4c-1.5,2.1-2.8,4.1-3.7,6.1
			c-0.9,2-1.4,3.5-1.4,4.5c0,0.5,0.2,0.8,0.6,0.8s1-0.3,1.8-0.8c0.8-0.5,1.7-1.2,2.7-2.1c1-0.9,2.1-1.9,3.1-3c1-1.1,2-2.4,2.9-3.7
			c1-1.5,2-3.1,3-4.9C264.8,79.5,265.6,77.9,266.3,76.5L266.3,76.5z"/>
		<path class="st2" d="M321.3,34.7c0,0.9-0.4,2.2-1,3.9c-0.7,1.7-1.7,3.7-3,6c-1.3,2.3-2.9,4.7-4.8,7.2c-1.9,2.6-4,5.1-6.4,7.7
			c-2.4,2.5-5,5-7.9,7.3c-2.9,2.3-5.9,4.4-9.2,6.1c-0.6,1-1.4,2.4-2.4,4.1c-1,1.7-2,3.5-3,5.4c-1,1.9-1.8,3.8-2.6,5.6
			c-0.7,1.8-1.1,3.4-1.1,4.7c0,2,0.9,3.1,2.8,3.1c1.6,0,3.2-0.4,5-1.3c1.7-0.9,3.4-2,4.9-3.2c1.6-1.3,3-2.6,4.4-4.1
			c1.4-1.4,2.5-2.7,3.5-3.9c0.4-0.4,0.7-0.6,0.8-0.3c0.1,0.2,0,0.5-0.3,0.7c-1.1,1.4-2.5,2.9-4.1,4.5c-1.6,1.6-3.2,3.1-5,4.4
			c-1.7,1.3-3.6,2.4-5.5,3.3c-1.9,0.9-3.8,1.3-5.7,1.3c-1.7,0-2.8-0.4-3.6-1.2c-0.7-0.8-1.1-1.8-1.1-2.9s0.5-2.8,1.5-4.9
			c1-2.1,2.1-4.4,3.5-6.7c1.3-2.4,2.7-4.6,4-6.7c1.3-2.1,2.3-3.7,3-4.8c1.1-1.8,2.2-3.8,3.4-5.8c1.2-2,2.3-4,3.5-5.9
			c1.1-1.9,2.2-3.7,3.3-5.5c1-1.7,2-3.3,2.9-4.6c1.1-1.7,2.2-3.2,3.3-4.7c1.1-1.5,2.6-2.9,4.4-4.4c2.4-2,4.6-3.6,6.7-4.7
			c2-1.1,3.4-1.6,4.1-1.6c0.5,0,0.9,0.1,1.2,0.4C321.2,33.7,321.3,34.1,321.3,34.7z M317,37.1c0-1-0.4-1.5-1.2-1.5
			c-0.3,0-0.7,0.1-1,0.3c-0.4,0.2-0.9,0.6-1.5,1.2c-0.6,0.6-1.3,1.4-2.2,2.5c-0.9,1.1-2,2.5-3.3,4.2c-0.5,0.7-1.2,1.7-2.1,3
			c-0.9,1.3-2.1,3.1-3.5,5.3S299,57,297,60.3c-2,3.2-4.4,7-7.1,11.4c3.8-2.2,7.4-4.8,10.7-7.9c3.3-3.1,6.2-6.2,8.6-9.5
			c2.4-3.2,4.3-6.4,5.7-9.4C316.3,41.8,317,39.2,317,37.1z"/>
		<path class="st2" d="M318.3,62c-0.5,0.1-1.1,0.4-1.7,0.7c-0.6,0.3-1.1,0.8-1.4,1.3c-1.5,2-2.9,4.2-4.2,6.4c-1.4,2.2-2.7,4.4-4,6.7
			h11.8c0.2,0.1,0.3,0.3,0.3,0.4c0,0.1-0.1,0.2-0.2,0.3c-0.5,0-1.3,0-2.3,0c-1,0-2.1,0.1-3.3,0.1c-1.2,0.1-2.4,0.1-3.7,0.2
			c-1.3,0.1-2.4,0.1-3.3,0.2c-1.8,3.2-3.1,5.9-4.1,8.1c-1,2.2-1.4,4.2-1.4,5.8c0,2.3,1,3.4,3.1,3.4c1,0,2.2-0.3,3.5-0.8
			c1.3-0.5,2.7-1.3,4.1-2.1c0.2-0.2,0.4-0.2,0.6,0c0.2,0.2,0.1,0.4-0.2,0.5c-2.2,1.4-4.2,2.4-6,3.1c-1.8,0.6-3.7,1-5.6,1
			c-1,0-1.9-0.3-2.7-0.9c-0.8-0.6-1.1-1.6-1.1-3.1c0-1.3,0.6-3.1,1.7-5.6c1.1-2.5,2.8-5.5,5.1-9.2c-0.8,0.1-1.7,0.1-2.8,0.2
			c-1.1,0.1-1.8,0.1-2,0.1c-0.3,0-0.5-0.1-0.5-0.4c0.3-0.4,0.7-0.9,1.2-1.3l4.9-0.1c0.6-1,1.2-2,1.9-3.2c0.7-1.2,1.4-2.4,2.1-3.5
			c0.7-1.2,1.4-2.3,2.1-3.4c0.7-1.1,1.4-2.1,2-3.1c0.7-0.3,1.7-0.7,2.9-1.2c1.2-0.5,2.3-0.9,3.3-1.2c0.1,0,0.2,0.1,0.3,0.2
			C318.7,61.7,318.6,61.9,318.3,62z"/>
		<path class="st2" d="M377.7,34c0,1,0,1.8-0.1,2.3c-0.1,0.5-0.2,0.9-0.3,1c-0.1,0.2-0.2,0.2-0.3,0.1c-0.1-0.1-0.1-0.2-0.1-0.3
			c0-0.4-0.1-1-0.3-1.8c-0.2-0.8-0.7-1.5-1.3-2.2c-0.7-0.7-1.6-1.4-2.8-1.9c-1.2-0.5-2.8-0.8-4.7-0.8c-1.7,0-3.4,0.2-5.1,0.7
			c-1.7,0.5-3.6,1.4-5.7,2.8c-2,1.4-4.2,3.3-6.5,5.7c-2.3,2.4-4.8,5.5-7.6,9.4s-5.7,8.5-8.9,14c-3.2,5.5-6.7,12-10.5,19.5
			c0.4-0.4,1.1-1,2.1-1.7s2-1.5,3.1-2.3c1.1-0.8,2.3-1.4,3.3-2c1.1-0.6,2-0.9,2.8-0.9c0.6,0,0.9,0.2,0.9,0.7c0,0.4-0.3,1-0.9,1.7
			c-0.5,0.8-1.2,1.8-2,3.1c-0.8,1.3-1.6,2.8-2.4,4.3c-0.8,1.5-1.5,3-2,4.5c-0.6,1.5-0.9,2.6-0.9,3.5c0,1,0.3,1.8,0.8,2.3
			c0.5,0.5,1.2,0.8,2.1,0.8c1.5,0,3.5-1,6.2-2.9c2.7-1.9,5.7-5.1,9.2-9.7c0.1-0.1,0.3-0.2,0.4-0.2c0.1,0,0.2,0.1,0.2,0.4
			c-1.2,1.7-2.6,3.4-4.2,5.1s-3.3,3.3-5,4.7c-1.7,1.4-3.4,2.5-5.1,3.4c-1.7,0.9-3.2,1.3-4.6,1.3c-1.1,0-1.9-0.3-2.6-0.9
			c-0.6-0.6-1-1.4-1-2.5c0-1,0.3-2.3,1-3.9c0.7-1.6,1.5-3.2,2.3-4.8c0.9-1.6,1.6-3.1,2.3-4.5c0.7-1.4,1-2.3,1-2.9
			c0-0.3-0.1-0.5-0.3-0.5c-0.6,0-1.6,0.5-3.1,1.6c-1.5,1.1-3.4,3.1-5.6,6.1c-0.9,1.6-1.8,3.2-2.8,5s-1.8,3.2-2.5,4.6
			c-0.5,1-1,1.5-1.4,1.5c-0.3,0-0.7-0.1-1.2-0.2c-0.5-0.2-0.8-0.5-0.8-0.9c0-0.3,0.1-0.7,0.3-1c2.7-4.8,5.3-9.4,7.8-13.7
			c2.5-4.3,5.1-8.5,7.7-12.6c3.1-4.8,6.2-9.6,9.5-14.6c3.3-5,6.6-9.5,10.1-13.5c3.4-4.1,6.9-7.4,10.4-10c3.5-2.6,7.1-3.9,10.6-3.9
			c0.9,0,1.8,0.1,2.8,0.3c1,0.2,1.9,0.6,2.7,1.1c0.9,0.5,1.6,1.2,2.1,2.1C377.5,31.3,377.7,32.5,377.7,34z"/>
	</g>
</g>
<text transform="matrix(1 0 0 1 130.3701 138.1582)" class="st1 st3 st4">MEDIA</text>
<text transform="matrix(1 0 0 1 83.2949 170.6543)" class="st5 st6 st7">Educate, Inspire, Motivate</text>
</svg>
