<?xml version="1.0" encoding="utf-8"?>
<!-- Generator: Adobe Illustrator 19.2.1, SVG Export Plug-In . SVG Version: 6.00 Build 0)  -->
<svg version="1.1" id="Layer_1" xmlns="http://www.w3.org/2000/svg" xmlns:xlink="http://www.w3.org/1999/xlink" x="0px" y="0px"
	 viewBox="0 0 119.9 21.8" style="enable-background:new 0 0 119.9 21.8;" xml:space="preserve">
<style type="text/css">
	.st0{fill:#FFFFFF;}
	.st1{fill:#FFFFFF;stroke:#FFFFFF;stroke-width:0.4778;stroke-miterlimit:10;}
</style>
<g>
	<g>
		<g>
			<path class="st0" d="M87.7,2.6c0.5,0,0.9,0.4,0.9,0.9c0,0.5-0.4,0.9-0.9,0.9c-0.5,0-0.9-0.4-0.9-0.9C86.8,3,87.2,2.6,87.7,2.6
				L87.7,2.6z M87.7,2.7c-0.4,0-0.7,0.3-0.7,0.8c0,0.4,0.3,0.8,0.7,0.8c0.4,0,0.7-0.3,0.7-0.8C88.4,3,88.1,2.7,87.7,2.7L87.7,2.7
				L87.7,2.7z M87.5,4h-0.2V3c0.1,0,0.2,0,0.3,0c0.2,0,0.3,0,0.3,0.1C88,3.1,88,3.1,88,3.2c0,0.1-0.1,0.2-0.2,0.2v0
				c0.1,0,0.1,0.1,0.2,0.2C88,3.9,88,4,88.1,4h-0.2c0,0,0-0.1-0.1-0.3c0-0.1-0.1-0.2-0.2-0.2h-0.1V4L87.5,4z M87.5,3.4h0.1
				c0.1,0,0.2,0,0.2-0.2c0-0.1-0.1-0.2-0.2-0.2c-0.1,0-0.1,0-0.1,0V3.4z"/>
		</g>
		<g>
			<path class="st1" d="M2.1,10C2.1,10,2,10,2.1,10C2,10,2,10,2,9.9c0-0.1,0.1-0.3,0.1-0.5c0-0.2,0.1-0.4,0.1-0.5
				c0-0.2,0.1-0.3,0.3-0.4C3,8.3,3.4,8.1,4,7.9C4.5,7.7,5,7.5,5.6,7.4c1-0.2,2-0.3,3-0.3c1.3,0,2.3,0.1,3,0.4
				c0.7,0.3,1.1,0.8,1.1,1.5c0,0.4-0.1,0.7-0.4,1.1c-0.2,0.4-0.6,0.7-1,1.1c-0.4,0.3-0.9,0.6-1.6,0.8c-0.6,0.2-1.3,0.4-2,0.5
				c-0.1,0-0.2,0.1-0.1,0.2c0.3,0.6,0.7,1.3,1.3,2.2c0.5,0.9,1.2,1.8,1.9,2.7c0.4,0.5,0.8,1,1.2,1.4c0.5,0.5,0.9,0.9,1.5,1.2
				c0.5,0.4,1.1,0.6,1.7,0.8c0.6,0.2,1.2,0.3,1.9,0.3c1,0,2-0.3,2.9-0.8c0.1-0.1,0.1,0,0.1,0c0,0.1,0,0.1-0.1,0.1
				c-0.5,0.3-1.1,0.5-1.6,0.7c-0.6,0.2-1.2,0.3-1.8,0.3c-0.9,0-1.8-0.1-2.5-0.3c-0.7-0.2-1.4-0.5-1.9-0.9c-0.6-0.4-1.2-0.9-1.7-1.5
				c-0.5-0.6-1.1-1.4-1.7-2.3c-0.2-0.3-0.4-0.6-0.6-1c-0.2-0.4-0.5-0.8-0.7-1.2c-0.2-0.4-0.5-0.8-0.7-1.2c-0.2-0.4-0.4-0.7-0.6-0.9
				c0-0.1,0-0.1,0.1-0.1c0.7,0,1.4-0.1,2-0.2c0.6-0.1,1.1-0.3,1.6-0.6c0.5-0.3,0.8-0.6,1.1-1c0.3-0.4,0.4-0.9,0.4-1.5
				c0-0.2,0-0.4-0.1-0.6c-0.1-0.2-0.2-0.4-0.4-0.6c-0.2-0.2-0.4-0.3-0.7-0.4C9.7,7.5,9.3,7.4,8.8,7.4c-0.2,0-0.3,0-0.5,0.1
				c-0.2,0-0.3,0.1-0.4,0.3C7.8,7.9,7.5,8.3,7.2,8.8c-0.3,0.5-0.7,1.1-1.1,1.7c-0.4,0.7-0.8,1.4-1.2,2.1c-0.4,0.7-0.8,1.5-1.2,2.2
				c-0.4,0.7-0.7,1.3-1,1.9c-0.3,0.6-0.5,1-0.7,1.3c0,0,0,0-0.1,0c-0.1,0-0.2,0-0.2,0c-0.1,0-0.2,0-0.2,0c-0.1,0-0.2,0-0.3,0
				c-0.1,0-0.2,0-0.4,0c-0.2,0.1-0.4,0.3-0.6,0.5c0,0-0.1,0-0.1,0c0,0,0,0,0-0.1c1.5-2.2,2.8-4.2,3.8-5.9s1.9-3.3,2.7-4.7
				c0-0.1,0.1-0.2,0-0.2c0,0-0.1,0-0.2,0c-0.5,0-1,0.1-1.5,0.3C4.4,8,4,8.2,3.5,8.4C3.3,8.6,3,8.8,2.7,9.1C2.5,9.3,2.3,9.6,2.1,10z"
				/>
			<path class="st1" d="M18.4,15.1c-0.3,0.3-0.6,0.7-1,1.1c-0.4,0.4-0.8,0.7-1.3,1c-0.5,0.3-0.9,0.5-1.4,0.7c-0.5,0.2-1,0.3-1.4,0.3
				c-0.8,0-1.2-0.3-1.2-1c0-0.5,0.1-1,0.4-1.5c0.2-0.5,0.5-1,0.9-1.5c0.4-0.5,0.8-0.8,1.2-1.1c0.5-0.3,0.9-0.5,1.3-0.5
				c0.2,0,0.4,0,0.5,0.1c0.1,0.1,0.1,0.2,0.1,0.3c0,0.2-0.1,0.4-0.2,0.6c-0.1,0.2-0.3,0.4-0.6,0.7c-0.2,0.2-0.6,0.4-0.9,0.5
				c-0.4,0.1-0.8,0.2-1.4,0.2c-0.1,0.1-0.2,0.4-0.3,0.7c-0.1,0.3-0.1,0.6-0.1,1c0,0.7,0.3,1,0.9,1c0.4,0,0.8-0.1,1.2-0.3
				c0.4-0.2,0.8-0.4,1.2-0.7c0.4-0.3,0.7-0.6,1-0.9c0.3-0.3,0.6-0.6,0.8-0.9C18.3,15,18.3,15,18.4,15.1C18.4,15,18.4,15.1,18.4,15.1
				z M15.9,13.2c0-0.2-0.1-0.3-0.3-0.3c-0.2,0-0.3,0.1-0.5,0.2c-0.2,0.1-0.3,0.3-0.5,0.5c-0.2,0.2-0.3,0.4-0.5,0.6
				c-0.1,0.2-0.3,0.5-0.4,0.7c0,0,0.1,0,0.2,0c0.1,0,0.1,0,0.2,0c0.5,0,0.9-0.2,1.3-0.5C15.7,14.1,15.9,13.7,15.9,13.2z"/>
			<path class="st1" d="M25.9,14.7c-0.4,0.5-0.8,0.9-1.2,1.4c-0.5,0.5-0.9,0.9-1.4,1.3c-0.5,0.4-0.9,0.7-1.4,0.9
				c-0.5,0.2-0.9,0.3-1.2,0.3c-0.3,0-0.6-0.1-0.7-0.2c-0.1-0.2-0.2-0.4-0.2-0.6c0-0.2,0.1-0.5,0.2-0.9c0.1-0.4,0.3-0.8,0.6-1.2
				c-0.2,0.3-0.5,0.6-0.7,0.9c-0.3,0.3-0.6,0.6-0.9,0.8c-0.3,0.3-0.6,0.5-0.9,0.6c-0.3,0.2-0.6,0.3-0.8,0.3c-0.3,0-0.5-0.2-0.5-0.5
				c0-0.4,0.1-0.9,0.4-1.4c0.3-0.6,0.7-1.1,1.2-1.7c0.5-0.5,1.1-1,1.7-1.4c0.6-0.4,1.3-0.6,2-0.6c0.1-0.2,0.2-0.3,0.2-0.3
				c0.1-0.1,0.1-0.1,0.2-0.1l0.7-0.2l0,0c-0.1,0.1-0.2,0.2-0.2,0.3c-0.1,0.1-0.2,0.2-0.2,0.4c0.1,0,0.2,0,0.4,0c0.2,0,0.3,0,0.4,0
				c0.1,0,0.1,0.1,0.1,0.1c0,0,0,0.1-0.1,0.1c-0.1,0-0.2-0.1-0.4-0.1c-0.2,0-0.3,0-0.4,0c-0.8,1.3-1.3,2.4-1.7,3.2
				c-0.4,0.8-0.5,1.4-0.5,1.7c0,0.1,0,0.3,0.1,0.4c0.1,0.1,0.2,0.1,0.5,0.1c0.3,0,0.6-0.1,0.9-0.3c0.4-0.2,0.7-0.5,1.2-0.8
				c0.4-0.3,0.8-0.7,1.3-1.2c0.4-0.4,0.8-0.9,1.2-1.4c0,0,0.1-0.1,0.1,0C25.9,14.6,25.9,14.6,25.9,14.7z M22.1,12.8
				c-0.6,0-1.1,0.2-1.6,0.6c-0.5,0.4-1,0.9-1.4,1.4c-0.4,0.5-0.7,1.1-0.9,1.6c-0.2,0.5-0.4,0.9-0.4,1.2c0,0.1,0,0.2,0.1,0.2
				c0.1,0,0.2-0.1,0.5-0.2c0.2-0.1,0.4-0.3,0.7-0.5c0.3-0.2,0.5-0.5,0.8-0.8c0.3-0.3,0.5-0.6,0.7-1c0.3-0.4,0.5-0.8,0.8-1.3
				C21.7,13.6,21.9,13.2,22.1,12.8L22.1,12.8z"/>
			<path class="st1" d="M36.3,2c0,0.2-0.1,0.6-0.3,1c-0.2,0.4-0.4,1-0.8,1.5c-0.3,0.6-0.7,1.2-1.2,1.9c-0.5,0.7-1,1.3-1.6,2
				c-0.6,0.7-1.3,1.3-2,1.9c-0.7,0.6-1.5,1.1-2.4,1.6c-0.1,0.3-0.4,0.6-0.6,1.1c-0.3,0.4-0.5,0.9-0.8,1.4c-0.3,0.5-0.5,1-0.7,1.5
				c-0.2,0.5-0.3,0.9-0.3,1.2c0,0.5,0.2,0.8,0.7,0.8c0.4,0,0.8-0.1,1.3-0.3c0.4-0.2,0.9-0.5,1.3-0.8c0.4-0.3,0.8-0.7,1.1-1
				c0.4-0.4,0.7-0.7,0.9-1c0.1-0.1,0.2-0.1,0.2-0.1c0,0.1,0,0.1-0.1,0.2c-0.3,0.4-0.6,0.7-1,1.2c-0.4,0.4-0.8,0.8-1.3,1.1
				c-0.5,0.3-0.9,0.6-1.4,0.9c-0.5,0.2-1,0.3-1.5,0.3c-0.4,0-0.7-0.1-0.9-0.3c-0.2-0.2-0.3-0.5-0.3-0.7c0-0.3,0.1-0.7,0.4-1.3
				c0.3-0.5,0.6-1.1,0.9-1.7c0.3-0.6,0.7-1.2,1-1.7c0.3-0.5,0.6-1,0.8-1.2c0.3-0.5,0.6-1,0.9-1.5c0.3-0.5,0.6-1,0.9-1.5
				c0.3-0.5,0.6-1,0.8-1.4c0.3-0.5,0.5-0.8,0.7-1.2c0.3-0.4,0.6-0.8,0.9-1.2c0.3-0.4,0.7-0.8,1.1-1.1c0.6-0.5,1.2-0.9,1.7-1.2
				c0.5-0.3,0.9-0.4,1.1-0.4c0.1,0,0.2,0,0.3,0.1C36.2,1.8,36.3,1.9,36.3,2z M35.1,2.7c0-0.3-0.1-0.4-0.3-0.4c-0.1,0-0.2,0-0.3,0.1
				c-0.1,0-0.2,0.2-0.4,0.3C34,2.8,33.8,3,33.6,3.3c-0.2,0.3-0.5,0.6-0.8,1.1c-0.1,0.2-0.3,0.4-0.6,0.8C32,5.5,31.7,6,31.3,6.5
				S30.5,7.8,30,8.6c-0.5,0.8-1.1,1.8-1.8,2.9c1-0.6,1.9-1.2,2.8-2c0.9-0.8,1.6-1.6,2.2-2.4c0.6-0.8,1.1-1.6,1.5-2.4
				C35,3.9,35.1,3.2,35.1,2.7z"/>
			<path class="st1" d="M59.8,6c0.1,0.1,0.1,0.1,0,0.2c0,0-0.1,0-0.2,0c0,0-0.1,0-0.1,0c-0.2,0-0.4,0-0.7,0.1
				C58.4,6.4,58,6.6,57.4,7c-0.6,0.4-1.3,1-2.2,1.8c-0.9,0.8-2,1.9-3.2,3.4c-0.3,0.4-0.7,0.8-1.1,1.3c-0.4,0.5-0.9,1.1-1.3,1.6
				c-0.4,0.5-0.8,1-1.2,1.5c-0.4,0.5-0.6,0.9-0.8,1.2c0,0.1-0.1,0.1-0.1,0.2c-0.1,0.1-0.1,0.1-0.2,0.1c-0.2,0-0.4,0.1-0.6,0.2
				c-0.2,0.1-0.4,0.2-0.5,0.3c-0.1,0-0.2-0.1,0-0.2c0,0,0.1-0.2,0.1-0.6c0-0.3,0.1-0.7,0.1-1.2c0-0.5,0.1-1,0.1-1.6
				c0-0.6,0-1.2,0-1.8c0-0.6,0-1.2,0-1.7c0-0.6,0-1,0-1.5c0-0.2-0.1-0.3-0.2-0.3c0,0-0.1,0-0.2,0.1c-0.1,0.1-0.4,0.3-0.7,0.6
				c-0.3,0.3-0.7,0.7-1.2,1.1c-0.5,0.4-1,0.9-1.6,1.5c-0.6,0.5-1.2,1.1-1.7,1.7c-0.6,0.6-1.1,1.1-1.7,1.7c-0.5,0.6-1.1,1.1-1.5,1.6
				c0,0-0.1,0.1-0.1,0.1c0,0-0.1,0.1-0.1,0.1c-0.2,0-0.5,0-0.7,0.1c-0.2,0.1-0.4,0.1-0.5,0.2c-0.1,0-0.1-0.1-0.1-0.2
				c0.1-0.2,0.3-0.5,0.4-0.8c0.1-0.3,0.3-0.7,0.5-1.1c0.1-0.2,0.2-0.5,0.4-1c0.2-0.5,0.3-1,0.5-1.5c0.2-0.6,0.4-1.2,0.6-1.8
				c0.2-0.6,0.4-1.2,0.6-1.7c0.2-0.5,0.3-1,0.4-1.4c0.1-0.4,0.2-0.6,0.2-0.7c0-0.2-0.1-0.3-0.4-0.3c-0.2,0-0.5,0-0.7,0.1
				c-0.2,0.1-0.4,0.1-0.6,0.1c-0.1,0-0.1,0-0.1-0.1c0-0.1,0-0.1,0.1-0.1c0.8-0.1,1.4-0.3,1.8-0.4c0.4-0.1,0.7-0.2,0.9-0.2
				c0.2,0,0.3-0.1,0.4-0.1c0.1,0,0.1,0,0.1,0c0.1,0,0.1,0,0.1,0.1c0,0.1,0,0.1-0.1,0.1c0,0-0.1,0.1-0.2,0.3
				c-0.1,0.1-0.1,0.3-0.2,0.4c-0.1,0.2-0.2,0.4-0.2,0.6c-0.1,0.2-0.2,0.4-0.2,0.6c-0.4,1.1-0.8,2.3-1.2,3.6
				c-0.4,1.3-0.8,2.5-1.1,3.7c0,0.2-0.1,0.3,0,0.3c0,0,0.1,0,0.1-0.1c0.7-0.7,1.5-1.4,2.3-2.2c0.8-0.8,1.7-1.6,2.5-2.4
				c0.9-0.8,1.7-1.6,2.5-2.4c0.8-0.8,1.6-1.5,2.3-2.1c0,0,0.1,0,0.1,0c0,0,0,0.1,0,0.1c-0.1,0-0.2,0.1-0.2,0.2
				c-0.1,0.1-0.1,0.2-0.1,0.3c0,0.3-0.1,0.6-0.1,1.1c0,0.4-0.1,0.9-0.1,1.4c0,0.5,0,1,0,1.5c0,0.5,0,1,0,1.5c0,0.8,0,1.4,0,1.9
				c0,0.5,0,0.9,0,1.2c0,0.1,0,0.2,0,0.2c0,0,0.1,0,0.1-0.1c0.3-0.4,0.6-0.7,1-1.2c0.4-0.4,0.7-0.8,1.1-1.3c0.4-0.4,0.7-0.9,1.1-1.3
				c0.4-0.4,0.7-0.8,1-1.2c0.4-0.4,0.8-0.9,1.2-1.4c0.4-0.5,0.9-0.9,1.3-1.4c0.5-0.5,0.9-0.9,1.3-1.3c0.4-0.4,0.8-0.8,1.2-1.1
				c0.3-0.3,0.6-0.5,1-0.8c0.3-0.2,0.7-0.4,1.1-0.4c0,0,0.1,0,0.2,0c0.1,0,0.2,0.1,0.3,0.1c0.1,0,0.2,0.1,0.3,0.1
				C59.8,6,59.8,6,59.8,6z"/>
			<path class="st1" d="M58.2,15.1c-0.3,0.3-0.6,0.7-1,1.1c-0.4,0.4-0.8,0.7-1.3,1c-0.5,0.3-0.9,0.5-1.4,0.7c-0.5,0.2-1,0.3-1.4,0.3
				c-0.8,0-1.2-0.3-1.2-1c0-0.5,0.1-1,0.4-1.5c0.2-0.5,0.5-1,0.9-1.5c0.4-0.5,0.8-0.8,1.2-1.1c0.5-0.3,0.9-0.5,1.3-0.5
				c0.2,0,0.4,0,0.5,0.1c0.1,0.1,0.1,0.2,0.1,0.3c0,0.2-0.1,0.4-0.2,0.6c-0.1,0.2-0.3,0.4-0.6,0.7c-0.2,0.2-0.6,0.4-0.9,0.5
				c-0.4,0.1-0.8,0.2-1.4,0.2c-0.1,0.1-0.2,0.4-0.3,0.7c-0.1,0.3-0.1,0.6-0.1,1c0,0.7,0.3,1,0.9,1c0.4,0,0.8-0.1,1.2-0.3
				c0.4-0.2,0.8-0.4,1.2-0.7c0.4-0.3,0.7-0.6,1-0.9c0.3-0.3,0.6-0.6,0.8-0.9C58.1,15,58.1,15,58.2,15.1C58.2,15,58.2,15.1,58.2,15.1
				z M55.7,13.2c0-0.2-0.1-0.3-0.3-0.3c-0.2,0-0.3,0.1-0.5,0.2c-0.2,0.1-0.3,0.3-0.5,0.5c-0.2,0.2-0.3,0.4-0.5,0.6
				c-0.1,0.2-0.3,0.5-0.4,0.7c0,0,0.1,0,0.2,0c0.1,0,0.1,0,0.2,0c0.5,0,0.9-0.2,1.3-0.5C55.5,14.1,55.7,13.7,55.7,13.2z"/>
			<path class="st1" d="M65.7,14.7c-0.4,0.5-0.8,0.9-1.2,1.4c-0.5,0.5-0.9,0.9-1.4,1.3c-0.5,0.4-0.9,0.7-1.4,0.9
				c-0.5,0.2-0.9,0.3-1.2,0.3c-0.3,0-0.6-0.1-0.7-0.2c-0.1-0.2-0.2-0.4-0.2-0.6c0-0.2,0.1-0.5,0.2-0.9c0.1-0.4,0.3-0.8,0.6-1.2
				c-0.2,0.3-0.5,0.6-0.7,0.9c-0.3,0.3-0.6,0.6-0.9,0.8c-0.3,0.3-0.6,0.5-0.9,0.6c-0.3,0.2-0.6,0.3-0.8,0.3c-0.3,0-0.5-0.2-0.5-0.5
				c0-0.4,0.1-0.9,0.4-1.4c0.3-0.6,0.7-1.1,1.2-1.7c0.5-0.5,1.1-1,1.7-1.4c0.6-0.4,1.3-0.6,2-0.6c0.1-0.2,0.2-0.3,0.2-0.3
				c0.1-0.1,0.1-0.1,0.2-0.1l0.7-0.2l0,0c-0.1,0.1-0.2,0.2-0.2,0.3c-0.1,0.1-0.2,0.2-0.2,0.4c0.1,0,0.2,0,0.4,0c0.2,0,0.3,0,0.4,0
				c0.1,0,0.1,0.1,0.1,0.1c0,0,0,0.1-0.1,0.1c-0.1,0-0.2-0.1-0.4-0.1c-0.2,0-0.3,0-0.4,0c-0.8,1.3-1.3,2.4-1.7,3.2
				c-0.4,0.8-0.5,1.4-0.5,1.7c0,0.1,0,0.3,0.1,0.4c0.1,0.1,0.2,0.1,0.5,0.1c0.3,0,0.6-0.1,0.9-0.3c0.4-0.2,0.7-0.5,1.2-0.8
				c0.4-0.3,0.8-0.7,1.3-1.2c0.4-0.4,0.8-0.9,1.2-1.4c0,0,0.1-0.1,0.1,0C65.7,14.6,65.7,14.6,65.7,14.7z M61.9,12.8
				c-0.6,0-1.1,0.2-1.6,0.6c-0.5,0.4-1,0.9-1.4,1.4c-0.4,0.5-0.7,1.1-0.9,1.6c-0.2,0.5-0.4,0.9-0.4,1.2c0,0.1,0,0.2,0.1,0.2
				c0.1,0,0.2-0.1,0.5-0.2c0.2-0.1,0.4-0.3,0.7-0.5c0.3-0.2,0.5-0.5,0.8-0.8c0.3-0.3,0.5-0.6,0.7-1c0.3-0.4,0.5-0.8,0.8-1.3
				C61.5,13.6,61.7,13.2,61.9,12.8L61.9,12.8z"/>
			<path class="st1" d="M76,2c0,0.2-0.1,0.6-0.3,1c-0.2,0.4-0.4,1-0.8,1.5c-0.3,0.6-0.7,1.2-1.2,1.9c-0.5,0.7-1,1.3-1.6,2
				c-0.6,0.7-1.3,1.3-2,1.9c-0.7,0.6-1.5,1.1-2.4,1.6c-0.1,0.3-0.4,0.6-0.6,1.1c-0.3,0.4-0.5,0.9-0.8,1.4c-0.3,0.5-0.5,1-0.7,1.5
				c-0.2,0.5-0.3,0.9-0.3,1.2c0,0.5,0.2,0.8,0.7,0.8c0.4,0,0.8-0.1,1.3-0.3c0.4-0.2,0.9-0.5,1.3-0.8c0.4-0.3,0.8-0.7,1.1-1
				c0.4-0.4,0.7-0.7,0.9-1c0.1-0.1,0.2-0.1,0.2-0.1c0,0.1,0,0.1-0.1,0.2c-0.3,0.4-0.6,0.7-1,1.2c-0.4,0.4-0.8,0.8-1.3,1.1
				c-0.5,0.3-0.9,0.6-1.4,0.9c-0.5,0.2-1,0.3-1.5,0.3c-0.4,0-0.7-0.1-0.9-0.3c-0.2-0.2-0.3-0.5-0.3-0.7c0-0.3,0.1-0.7,0.4-1.3
				c0.3-0.5,0.6-1.1,0.9-1.7c0.3-0.6,0.7-1.2,1-1.7c0.3-0.5,0.6-1,0.8-1.2c0.3-0.5,0.6-1,0.9-1.5c0.3-0.5,0.6-1,0.9-1.5
				c0.3-0.5,0.6-1,0.8-1.4c0.3-0.5,0.5-0.8,0.7-1.2c0.3-0.4,0.6-0.8,0.9-1.2c0.3-0.4,0.7-0.8,1.1-1.1C73.4,2.7,74,2.3,74.5,2
				c0.5-0.3,0.9-0.4,1.1-0.4c0.1,0,0.2,0,0.3,0.1C76,1.8,76,1.9,76,2z M74.9,2.7c0-0.3-0.1-0.4-0.3-0.4c-0.1,0-0.2,0-0.3,0.1
				c-0.1,0-0.2,0.2-0.4,0.3c-0.2,0.2-0.3,0.4-0.6,0.7c-0.2,0.3-0.5,0.6-0.8,1.1c-0.1,0.2-0.3,0.4-0.6,0.8c-0.2,0.3-0.5,0.8-0.9,1.4
				c-0.4,0.6-0.8,1.3-1.3,2.1c-0.5,0.8-1.1,1.8-1.8,2.9c1-0.6,1.9-1.2,2.8-2c0.9-0.8,1.6-1.6,2.2-2.4c0.6-0.8,1.1-1.6,1.5-2.4
				C74.8,3.9,74.9,3.2,74.9,2.7z"/>
			<path class="st1" d="M75.3,9.1c-0.1,0-0.3,0.1-0.4,0.2c-0.2,0.1-0.3,0.2-0.4,0.3c-0.4,0.5-0.7,1.1-1.1,1.6
				c-0.4,0.6-0.7,1.1-1,1.7h3c0,0,0.1,0.1,0.1,0.1c0,0,0,0.1,0,0.1c-0.1,0-0.3,0-0.6,0c-0.3,0-0.5,0-0.9,0c-0.3,0-0.6,0-1,0
				c-0.3,0-0.6,0-0.9,0c-0.5,0.8-0.8,1.5-1.1,2.1c-0.2,0.6-0.4,1.1-0.4,1.5c0,0.6,0.3,0.9,0.8,0.9c0.3,0,0.6-0.1,0.9-0.2
				c0.3-0.1,0.7-0.3,1.1-0.6c0,0,0.1,0,0.1,0c0,0.1,0,0.1,0,0.1c-0.6,0.4-1.1,0.6-1.5,0.8c-0.5,0.2-1,0.2-1.5,0.2
				c-0.3,0-0.5-0.1-0.7-0.2c-0.2-0.2-0.3-0.4-0.3-0.8c0-0.3,0.1-0.8,0.4-1.4c0.3-0.6,0.7-1.4,1.3-2.4c-0.2,0-0.4,0-0.7,0.1
				c-0.3,0-0.5,0-0.5,0c-0.1,0-0.1,0-0.1-0.1c0.1-0.1,0.2-0.2,0.3-0.3l1.3,0c0.1-0.2,0.3-0.5,0.5-0.8c0.2-0.3,0.4-0.6,0.5-0.9
				c0.2-0.3,0.4-0.6,0.6-0.9c0.2-0.3,0.4-0.6,0.5-0.8c0.2-0.1,0.4-0.2,0.7-0.3C74.7,9.1,75,9,75.3,8.9c0,0,0.1,0,0.1,0.1
				C75.4,9,75.3,9,75.3,9.1z"/>
			<path class="st1" d="M90.6,1.8c0,0.3,0,0.5,0,0.6c0,0.1,0,0.2-0.1,0.3c0,0,0,0.1-0.1,0c0,0,0-0.1,0-0.1c0-0.1,0-0.3-0.1-0.5
				c-0.1-0.2-0.2-0.4-0.3-0.6c-0.2-0.2-0.4-0.4-0.7-0.5C88.9,1,88.5,0.9,88,0.9c-0.4,0-0.9,0.1-1.3,0.2c-0.5,0.1-0.9,0.4-1.5,0.7
				c-0.5,0.4-1.1,0.8-1.7,1.5c-0.6,0.6-1.2,1.4-2,2.4c-0.7,1-1.5,2.2-2.3,3.6c-0.8,1.4-1.7,3.1-2.7,5c0.1-0.1,0.3-0.2,0.5-0.4
				c0.2-0.2,0.5-0.4,0.8-0.6c0.3-0.2,0.6-0.4,0.9-0.5c0.3-0.1,0.5-0.2,0.7-0.2c0.1,0,0.2,0.1,0.2,0.2c0,0.1-0.1,0.2-0.2,0.4
				c-0.1,0.2-0.3,0.5-0.5,0.8c-0.2,0.3-0.4,0.7-0.6,1.1c-0.2,0.4-0.4,0.8-0.5,1.2c-0.1,0.4-0.2,0.7-0.2,0.9c0,0.3,0.1,0.5,0.2,0.6
				c0.1,0.1,0.3,0.2,0.5,0.2c0.4,0,0.9-0.2,1.6-0.7c0.7-0.5,1.5-1.3,2.4-2.5c0,0,0.1,0,0.1,0c0,0,0,0,0,0.1
				c-0.3,0.4-0.7,0.9-1.1,1.3c-0.4,0.4-0.8,0.8-1.3,1.2c-0.4,0.4-0.9,0.7-1.3,0.9c-0.4,0.2-0.8,0.3-1.2,0.3c-0.3,0-0.5-0.1-0.7-0.2
				c-0.2-0.2-0.2-0.4-0.2-0.7c0-0.3,0.1-0.6,0.3-1c0.2-0.4,0.4-0.8,0.6-1.2c0.2-0.4,0.4-0.8,0.6-1.2c0.2-0.4,0.3-0.6,0.3-0.7
				c0-0.1,0-0.1-0.1-0.1c-0.1,0-0.4,0.1-0.8,0.4c-0.4,0.3-0.9,0.8-1.4,1.6c-0.2,0.4-0.5,0.8-0.7,1.3c-0.2,0.4-0.5,0.8-0.6,1.2
				c-0.1,0.3-0.3,0.4-0.4,0.4c-0.1,0-0.2,0-0.3-0.1c-0.1,0-0.2-0.1-0.2-0.2c0-0.1,0-0.2,0.1-0.3c0.7-1.2,1.4-2.4,2-3.5
				c0.7-1.1,1.3-2.2,2-3.3c0.8-1.2,1.6-2.5,2.4-3.8c0.8-1.3,1.7-2.4,2.6-3.5c0.9-1,1.8-1.9,2.7-2.6c0.9-0.7,1.8-1,2.7-1
				c0.2,0,0.5,0,0.7,0.1c0.2,0.1,0.5,0.2,0.7,0.3c0.2,0.1,0.4,0.3,0.5,0.6C90.5,1.2,90.6,1.5,90.6,1.8z"/>
		</g>
	</g>
	<g>
		<path class="st0" d="M95.7,14.6L94.1,18h-0.8l-1.7-3.4v3.9h-1.4v-6.2h1.9l1.6,3.4l1.6-3.4h1.9v6.2h-1.4V14.6z"/>
		<path class="st0" d="M103.1,12.3v1.2H100v1.3h2.8V16H100v1.3h3.2v1.2h-4.5v-6.2H103.1z"/>
		<path class="st0" d="M109.1,13.1c0.6,0.5,0.9,1.3,0.9,2.2c0,1-0.3,1.7-0.9,2.3c-0.6,0.6-1.4,0.8-2.6,0.8h-2.1v-6.2h2.2
			C107.7,12.3,108.5,12.6,109.1,13.1z M108.1,16.8c0.3-0.3,0.5-0.8,0.5-1.4c0-0.6-0.2-1.1-0.5-1.4c-0.3-0.3-0.9-0.5-1.6-0.5h-0.8
			v3.7h0.9C107.3,17.3,107.7,17.1,108.1,16.8z"/>
		<path class="st0" d="M111.2,12.3h1.4v6.2h-1.4V12.3z"/>
		<path class="st0" d="M118.5,18.5l-0.6-1.3h-2.6l-0.6,1.3h-1.5l2.7-6.2h1.3l2.7,6.2H118.5z M116.6,14.1l-0.8,1.8h1.5L116.6,14.1z"
			/>
	</g>
</g>
</svg>
