<?xml version="1.0" encoding="utf-8"?>
<!-- Generator: Adobe Illustrator 19.2.1, SVG Export Plug-In . SVG Version: 6.00 Build 0)  -->
<svg version="1.1" id="Layer_1" xmlns="http://www.w3.org/2000/svg" xmlns:xlink="http://www.w3.org/1999/xlink" x="0px" y="0px"
	 viewBox="0 0 500 500" style="enable-background:new 0 0 500 500;" xml:space="preserve">
<style type="text/css">
	.st0{fill:#FFFFFF;stroke:#000000;stroke-miterlimit:10;}
	.st1{opacity:8.000000e-002;}
	.st2{fill:#1E2F5D;}
	.st3{fill:#999999;stroke:#999999;stroke-width:0.658;}
	.st4{fill:#1E2F5D;stroke:#222944;stroke-width:0.658;}
	.st5{enable-background:new    ;}
	.st6{fill:#231F20;}
</style>
<rect class="st0" width="500" height="500"/>
<g class="st1">
	<g>
		<path class="st2" d="M230.5,54.2c-2.7,0.5-5.5,0.8-8.2,1.5c-7.2,1.9-13.5,5.4-19.1,10.3c-6.9,6.1-11.8,13.5-14.5,22.3
			c-0.4,1.4-0.7,2.8-1,4.2c0,0.2,0,0.4,0,0.7c15.4,0,30.7,0,46.1,0c0,5.2,0,10.3,0,15.5c-15.6,0-31.2,0-46.9,0c0,5.3,0,10.4,0,15.7
			c15.6,0,31.2,0,46.9,0c0,5.2,0,10.3,0,15.5c-15.6,0-31.2,0-46.9,0c0,5.3,0,10.4,0,15.7c15.6,0,31.2,0,46.9,0c0,5.2,0,10.3,0,15.5
			c-15.6,0-31.2,0-46.9,0c0,5.2,0,10.4,0,15.6c15.6,0,31.2,0,46.9,0c0,5.2,0,10.3,0,15.6c-15.6,0-31.2,0-46.9,0c0,5.3,0,10.4,0,15.7
			c15.7,0,31.3,0,47,0c0,5.2,0,10.3,0,15.5c-15.6,0-31.2,0-46.9,0c0,5.2,0,10.3,0,15.6c15.6,0,31.2,0,46.9,0c0,5.2,0,10.3,0,15.5
			c-15.3,0-30.7,0-46.2,0c0.4,1.5,0.6,2.9,1,4.3c4.7,15,14.4,25.5,28.8,31.6c5.3,2.2,11,3.2,16.8,3.2c10.1,0,20.1,0.1,30.2,0
			c13.4-0.1,24.7-5.4,33.9-14.9c6.7-7,11-15.2,12.7-24.8c0.4-2.4,0.6-5,0.6-7.4c0.1-12,0-24,0-36.1c0-39.6,0-79.1,0-118.7
			c0-12.3-4.3-22.8-12.5-31.9c-7.4-8.1-16.5-13.2-27.3-15.2c-1.3-0.2-2.5-0.4-3.8-0.6C255.5,54.2,243,54.2,230.5,54.2z"/>
		<path class="st2" d="M366.1,202.4c-0.3,0-0.5-0.1-0.8-0.1c-9.8,0-19.6,0-29.4,0c-0.3,0-0.5,0-1,0.1c0,0.5,0,1,0,1.5
			c0,16.7,0,33.4,0,50.1c0,7.8-0.7,15.6-3.1,23.1c-5.1,16-14.8,28.7-28.6,38.2c-8.4,5.7-17.7,9.4-27.8,11c-3.5,0.5-7.1,0.8-10.6,0.8
			c-10.9,0.1-21.9,0.1-32.8,0c-11.3-0.1-21.9-3.1-31.8-8.7c-15.2-8.5-26-21-32.3-37.2c-3.1-8-4.5-16.4-4.5-25c0-17.4,0-34.7,0-52.1
			c0-0.5,0-1,0-1.6c-0.4,0-0.7-0.1-1-0.1c-9.8,0-19.6,0-29.4,0c-0.3,0-0.5,0.1-0.8,0.1c0,20,0,40,0,59.9c0.1,0.3,0.2,0.7,0.2,1
			c0.4,6.6,1.5,13.2,3.3,19.5c6.9,24.2,20.9,43.4,41.5,57.7c16.4,11.4,34.8,17.2,54.8,17.7c0.5,0,1,0,1.4,0.1c0,18.2,0,36.3,0,54.5
			c-22.1,0-44.1,0-66.1,0c0,0.3-0.1,0.4-0.1,0.5c0,10.2,0,20.4,0,30.7c54.6,0,109.1,0,163.7,0c0-10.2,0-20.4,0-30.7
			c0-0.1-0.1-0.3-0.1-0.6c-22,0-44.1,0-66.1,0c0-18.2,0-36.3,0-54.4c3.7-0.3,7.4-0.5,11-0.8c8.3-0.9,16.4-2.9,24.2-5.9
			c13.3-5.1,25-12.7,35.2-22.7c10-9.7,17.7-21,23.1-33.9c4-9.4,6.5-19.2,7.4-29.4c0.1-1.1,0.3-2.2,0.4-3.3
			C366.1,242.4,366.1,222.4,366.1,202.4z"/>
	</g>
</g>
<g>
	<path class="st3" d="M29.3,207.9c-0.2,0.1-0.3,0.1-0.5,0.1s-0.3-0.1-0.3-0.3c0.3-0.7,0.5-1.5,0.8-2.4c0.3-1,0.5-1.8,0.6-2.6
		c0-0.8,0.5-1.5,1.5-2.1c2.2-1.2,4.6-2.3,7.3-3.3s5.4-1.8,8.1-2.4c4.9-1,10.1-1.5,15.4-1.5c6.6,0,11.7,0.7,15.4,2.2
		c3.6,1.5,5.5,4.1,5.5,7.8c0,1.8-0.6,3.7-1.8,5.7c-1.2,2-2.9,3.8-5.1,5.5s-4.8,3.1-8,4.3c-3.1,1.2-6.6,2-10.3,2.4
		c-0.8,0.1-1,0.4-0.8,1c1.6,2.9,3.8,6.6,6.6,11c2.8,4.4,6,9.1,9.5,14c1.8,2.5,3.9,4.9,6.2,7.3c2.3,2.3,4.8,4.4,7.5,6.2
		s5.5,3.2,8.6,4.3c3.1,1.1,6.2,1.6,9.5,1.6c5,0,10-1.3,14.9-3.9c0.5-0.3,0.8-0.3,0.8,0.3c0,0.3-0.2,0.5-0.5,0.6
		c-2.7,1.4-5.5,2.6-8.4,3.5s-6.1,1.3-9.4,1.3c-4.8,0-8.9-0.5-12.5-1.4c-3.6-1-6.9-2.4-9.9-4.5c-3-2-5.9-4.6-8.6-7.8s-5.5-7-8.5-11.5
		c-0.8-1.3-1.8-3-3-5s-2.4-4-3.6-6.1c-1.3-2.1-2.4-4.1-3.6-6.1c-1.1-2-2.1-3.6-2.8-4.8c0-0.3,0.1-0.5,0.4-0.5c3.8,0,7.2-0.3,10.4-1
		c3.1-0.7,5.9-1.7,8.2-3.1c2.3-1.4,4.1-3.1,5.4-5.3c1.3-2.1,1.9-4.6,1.9-7.5c0-1-0.2-2.1-0.6-3.2c-0.4-1.1-1-2.1-2-3
		s-2.2-1.6-3.8-2.2c-1.6-0.6-3.6-0.9-6-0.9c-0.8,0-1.7,0.1-2.4,0.3c-0.8,0.2-1.5,0.6-2.1,1.3c-0.9,1.1-2.2,2.9-3.9,5.5
		s-3.5,5.5-5.5,8.8s-4.1,6.9-6.3,10.7s-4.2,7.4-6.2,11s-3.7,6.8-5.2,9.7s-2.6,5.2-3.4,6.8c-0.1,0.2-0.3,0.3-0.5,0.3
		c-0.4-0.1-0.8-0.1-1.3-0.2c-0.4,0-0.8-0.1-1.3-0.1c-0.4,0-0.9,0-1.5,0s-1.2,0.1-1.9,0.3c-1,0.6-2,1.4-2.9,2.4c-0.2,0-0.4,0-0.6-0.1
		s-0.2-0.2-0.1-0.4c7.7-11.2,14.2-21.2,19.4-30s9.8-16.8,13.7-24.1c0.3-0.7,0.3-1.1,0.2-1.3s-0.4-0.3-0.8-0.3
		c-2.5,0.2-5,0.7-7.5,1.5s-4.9,1.8-7,3c-1.4,0.8-2.8,2-4,3.4C31.3,204.7,30.2,206.3,29.3,207.9z"/>
	<path class="st3" d="M112.6,234.1c-1.4,1.8-3.1,3.6-5.1,5.5s-4.1,3.6-6.4,5.1c-2.3,1.6-4.7,2.8-7.2,3.8s-4.9,1.4-7.3,1.4
		c-3.9,0-5.9-1.8-5.9-5.3c0-2.3,0.6-4.9,1.8-7.6c1.2-2.7,2.8-5.2,4.7-7.5c1.9-2.3,4-4.2,6.3-5.8c2.3-1.5,4.5-2.3,6.6-2.3
		c1.2,0,2,0.2,2.4,0.6c0.5,0.4,0.7,1,0.7,1.6c0,1-0.3,2.1-0.9,3.3s-1.6,2.3-2.8,3.3c-1.3,1-2.8,1.9-4.8,2.6
		c-1.9,0.7-4.2,1.1-6.9,1.1c-0.4,0.8-0.9,1.9-1.4,3.6c-0.5,1.6-0.8,3.3-0.8,5c0,3.4,1.5,5.1,4.6,5.1c1.9,0,3.9-0.5,6-1.4
		c2-0.9,4-2.1,6-3.5c1.9-1.4,3.7-2.9,5.3-4.5c1.6-1.6,3-3.2,4.1-4.6c0.2-0.2,0.4-0.2,0.6-0.1C112.5,233.7,112.6,233.9,112.6,234.1z
		 M99.4,224.4c0-1.1-0.5-1.6-1.6-1.6c-0.8,0-1.7,0.3-2.6,0.9c-0.9,0.6-1.7,1.4-2.6,2.4c-0.8,1-1.6,2.1-2.4,3.3s-1.4,2.3-1.9,3.4
		c0.2,0.1,0.5,0.1,0.9,0.2c0.4,0,0.8,0.1,1,0.1c2.4,0,4.6-0.9,6.4-2.6C98.5,228.7,99.4,226.7,99.4,224.4z"/>
	<path class="st3" d="M150.7,231.9c-1.9,2.3-4,4.7-6.3,7.1c-2.3,2.4-4.6,4.5-7,6.5c-2.3,1.9-4.7,3.5-7,4.6c-2.3,1.2-4.4,1.8-6.3,1.8
		c-1.7,0-2.8-0.4-3.5-1.3c-0.7-0.8-1-1.9-1-3.1c0-1.2,0.4-2.7,1.1-4.7s1.8-4.1,3.2-6.3c-1.1,1.4-2.3,2.9-3.8,4.5
		c-1.4,1.6-2.9,3-4.4,4.3s-3,2.4-4.5,3.3c-1.5,0.9-2.8,1.3-4,1.3c-1.8,0-2.6-0.9-2.6-2.6c0-1.9,0.8-4.3,2.3-7.3
		c1.5-2.9,3.5-5.7,6.1-8.5c2.6-2.7,5.5-5.1,8.7-7c3.3-2,6.6-2.9,10.2-2.9c0.4-0.8,0.8-1.4,1.1-1.8c0.3-0.3,0.7-0.6,1-0.8l3.5-1
		l0.3,0.1c-0.4,0.4-0.8,0.9-1.2,1.6c-0.4,0.6-0.8,1.3-1.2,1.9c0.4,0,1,0,1.9,0.1c0.8,0.1,1.5,0.2,1.9,0.3c0.4,0.2,0.6,0.4,0.6,0.6
		c0,0.3-0.1,0.4-0.4,0.4c-0.5-0.2-1.3-0.3-2.3-0.4c-1-0.1-1.8-0.1-2.3-0.1c-3.8,6.8-6.7,12.1-8.5,16.1s-2.7,6.9-2.7,8.8
		c0,0.8,0.2,1.4,0.6,1.9s1.1,0.8,2.3,0.8c1.3,0,2.9-0.5,4.8-1.4c1.8-1,3.8-2.3,5.9-4c2.1-1.7,4.2-3.7,6.5-6c2.2-2.3,4.3-4.6,6.3-7.2
		c0.2-0.3,0.3-0.3,0.5-0.2C150.6,231.4,150.7,231.6,150.7,231.9z M131.1,222.4c-2.8,0-5.6,1-8.2,3s-4.9,4.4-6.9,7.1
		c-2,2.7-3.6,5.4-4.8,8.1c-1.2,2.7-1.8,4.6-1.8,5.9c0,0.7,0.3,1,0.8,1s1.3-0.3,2.3-1s2.2-1.6,3.6-2.7c1.3-1.1,2.7-2.4,4.1-4
		c1.4-1.5,2.7-3.1,3.8-4.9c1.3-2,2.6-4.1,3.9-6.4c1.3-2.3,2.4-4.3,3.4-6L131.1,222.4z"/>
	<path class="st3" d="M203.5,167.3c0,1.2-0.5,2.9-1.4,5.1c-0.9,2.3-2.2,4.9-4,7.8c-1.7,3-3.8,6.1-6.3,9.5s-5.3,6.8-8.4,10.1
		c-3.1,3.3-6.6,6.5-10.4,9.6c-3.8,3.1-7.8,5.8-12,8.1c-0.8,1.3-1.8,3.1-3.1,5.4c-1.3,2.3-2.7,4.6-4,7.2c-1.3,2.5-2.4,5-3.4,7.4
		s-1.4,4.5-1.4,6.1c0,2.7,1.2,4,3.6,4c2.1,0,4.3-0.6,6.5-1.8c2.3-1.2,4.4-2.6,6.5-4.3c2-1.7,4-3.4,5.8-5.3c1.8-1.9,3.3-3.6,4.6-5.1
		c0.6-0.6,0.9-0.7,1-0.4s0,0.6-0.4,0.9c-1.5,1.8-3.3,3.8-5.3,5.9c-2.1,2.1-4.2,4-6.5,5.8s-4.7,3.2-7.2,4.4s-5,1.8-7.5,1.8
		c-2.2,0-3.7-0.5-4.7-1.6c-1-1-1.4-2.3-1.4-3.8s0.6-3.7,1.9-6.5c1.3-2.8,2.8-5.7,4.6-8.8s3.5-6,5.3-8.8s3.1-4.8,3.9-6.3
		c1.4-2.4,2.9-5,4.5-7.6c1.5-2.6,3.1-5.2,4.6-7.7s2.9-4.9,4.3-7.2c1.4-2.3,2.7-4.3,3.8-6.1c1.4-2.2,2.9-4.2,4.4-6.1
		c1.5-1.9,3.4-3.8,5.8-5.8c3.2-2.7,6.1-4.7,8.8-6.1c2.7-1.4,4.5-2.1,5.4-2.1c0.7,0,1.2,0.2,1.6,0.6
		C203.3,166,203.5,166.5,203.5,167.3z M197.9,170.5c0-1.3-0.5-2-1.6-2c-0.4,0-0.9,0.1-1.4,0.4c-0.5,0.3-1.2,0.8-1.9,1.6
		c-0.8,0.8-1.8,1.9-2.9,3.3c-1.1,1.4-2.6,3.3-4.3,5.5c-0.7,0.9-1.6,2.3-2.8,4c-1.2,1.8-2.8,4.1-4.6,7c-1.9,2.9-4.1,6.4-6.8,10.7
		c-2.6,4.2-5.8,9.2-9.3,15c5-2.8,9.7-6.3,14.1-10.3c4.4-4.1,8.2-8.2,11.4-12.5s5.7-8.4,7.5-12.4C197,176.7,197.9,173.3,197.9,170.5z
		"/>
	<path class="st3" d="M323.9,187.6c0.4,0.4,0.3,0.7-0.3,0.9c-0.3-0.1-0.5-0.1-0.9-0.1c-0.3,0-0.5,0-0.8,0c-0.8,0-2.1,0.3-3.7,0.8
		s-3.9,1.8-6.8,3.8s-6.6,5.1-11.1,9.2c-4.5,4.1-10,9.8-16.5,17.1c-1.7,1.8-3.6,4.1-5.8,6.8c-2.2,2.7-4.4,5.4-6.6,8.1
		c-2.2,2.7-4.2,5.3-6.1,7.8c-1.8,2.5-3.2,4.5-4.1,6.1c-0.2,0.3-0.4,0.6-0.8,0.9c-0.3,0.3-0.7,0.5-1.1,0.6c-1.1,0.2-2.2,0.4-3.2,0.8
		c-1,0.4-1.9,0.9-2.6,1.6c-0.8,0-0.8-0.4-0.3-1.3c0.3-0.2,0.5-1.2,0.7-2.9s0.4-3.7,0.6-6.2c0.2-2.5,0.3-5.2,0.4-8.3
		c0.1-3.1,0.2-6.1,0.3-9.2c0-3.1,0.1-6.1,0.1-8.9c0-2.8,0.1-5.3,0.1-7.4c0-1.2-0.3-1.8-0.9-1.8c-0.3,0-0.7,0.2-1.3,0.6
		c-0.7,0.6-1.9,1.7-3.6,3.3c-1.7,1.6-3.8,3.5-6.1,5.8c-2.4,2.3-5,4.8-8,7.5c-2.9,2.8-5.9,5.6-8.8,8.5c-3,2.9-5.9,5.9-8.7,8.8
		c-2.8,2.9-5.4,5.7-7.7,8.3c-0.3,0.3-0.5,0.5-0.8,0.8s-0.5,0.4-0.8,0.4c-1.3,0-2.4,0.1-3.3,0.4c-1,0.3-1.9,0.6-2.7,1.1
		c-0.6,0-0.7-0.4-0.4-1.1c0.7-1,1.4-2.3,2.1-4c0.7-1.6,1.5-3.5,2.4-5.7c0.4-1,1-2.7,1.9-5c0.8-2.3,1.8-4.9,2.8-7.8
		c1-2.9,2-5.9,3.1-9c1-3.1,2-6.1,2.9-8.8c0.9-2.8,1.6-5.1,2.2-7.1c0.6-2,0.9-3.2,0.9-3.8c0-1.2-0.6-1.8-1.9-1.8
		c-1.2,0-2.4,0.2-3.6,0.5c-1.2,0.3-2.2,0.5-2.9,0.5c-0.4,0-0.6-0.2-0.7-0.5c0-0.3,0.2-0.5,0.7-0.6c4-0.8,7.1-1.4,9.3-1.8
		c2.2-0.5,3.8-0.8,4.8-1.1s1.7-0.4,2-0.6c0.3-0.1,0.5-0.2,0.7-0.2c0.4,0,0.6,0.2,0.6,0.5s-0.1,0.6-0.4,0.8c-0.3,0.3-0.5,0.7-0.9,1.3
		s-0.7,1.4-1.1,2.3c-0.4,0.9-0.8,1.8-1.2,2.8s-0.8,2-1.1,2.9c-2.2,5.8-4.3,11.9-6.3,18.4c-2.1,6.5-4,12.9-5.7,19.1
		c-0.3,0.9-0.3,1.4-0.1,1.4s0.4-0.1,0.7-0.3c3.6-3.3,7.5-7.1,11.7-11.2c4.2-4.1,8.5-8.3,12.9-12.5s8.7-8.3,12.9-12.3
		s8-7.5,11.5-10.7c0.3-0.1,0.5,0,0.7,0.3s0.2,0.5,0.1,0.6c-0.4,0.2-0.8,0.5-1.1,1c-0.3,0.5-0.5,1-0.6,1.6c-0.2,1.4-0.3,3.2-0.5,5.4
		s-0.3,4.5-0.4,7s-0.2,5.1-0.3,7.7c0,2.6-0.1,5.2-0.1,7.7c0,3.8,0,7.1,0.1,9.7c0.1,2.6,0.1,4.7,0.1,6.3c0,0.6,0.1,0.9,0.3,0.9
		c0.3,0,0.5-0.2,0.8-0.5c1.5-1.8,3.2-3.8,5-6c1.8-2.1,3.6-4.3,5.5-6.6s3.8-4.5,5.6-6.6c1.9-2.2,3.6-4.2,5.2-6c1.9-2.2,4-4.5,6.3-6.9
		s4.5-4.8,6.8-7.1s4.5-4.6,6.7-6.8s4.1-4.1,5.9-5.6c1.6-1.4,3.2-2.8,5-4c1.7-1.3,3.7-1.9,5.8-1.9c0.2,0,0.5,0.1,0.9,0.2
		c0.5,0.1,0.9,0.3,1.4,0.4c0.5,0.2,0.9,0.3,1.3,0.5C323.6,187.4,323.9,187.5,323.9,187.6z"/>
	<path class="st3" d="M315.7,234.1c-1.4,1.8-3.1,3.6-5.1,5.5s-4.1,3.6-6.4,5.1c-2.3,1.6-4.7,2.8-7.2,3.8s-4.9,1.4-7.3,1.4
		c-3.9,0-5.9-1.8-5.9-5.3c0-2.3,0.6-4.9,1.8-7.6c1.2-2.7,2.8-5.2,4.7-7.5c1.9-2.3,4-4.2,6.3-5.8c2.3-1.5,4.5-2.3,6.6-2.3
		c1.2,0,2,0.2,2.4,0.6c0.5,0.4,0.7,1,0.7,1.6c0,1-0.3,2.1-0.9,3.3s-1.6,2.3-2.8,3.3c-1.3,1-2.8,1.9-4.8,2.6
		c-1.9,0.7-4.2,1.1-6.9,1.1c-0.4,0.8-0.9,1.9-1.4,3.6c-0.5,1.6-0.8,3.3-0.8,5c0,3.4,1.5,5.1,4.6,5.1c1.9,0,3.9-0.5,6-1.4
		c2-0.9,4-2.1,6-3.5c1.9-1.4,3.7-2.9,5.3-4.5c1.6-1.6,3-3.2,4.1-4.6c0.2-0.2,0.4-0.2,0.6-0.1C315.6,233.7,315.7,233.9,315.7,234.1z
		 M302.5,224.4c0-1.1-0.5-1.6-1.6-1.6c-0.8,0-1.7,0.3-2.6,0.9c-0.9,0.6-1.7,1.4-2.6,2.4c-0.8,1-1.6,2.1-2.4,3.3s-1.4,2.3-1.9,3.4
		c0.2,0.1,0.5,0.1,0.9,0.2c0.4,0,0.8,0.1,1,0.1c2.4,0,4.6-0.9,6.4-2.6C301.6,228.7,302.5,226.7,302.5,224.4z"/>
	<path class="st3" d="M353.8,231.9c-1.9,2.3-4,4.7-6.3,7.1c-2.3,2.4-4.6,4.5-7,6.5c-2.3,1.9-4.7,3.5-7,4.6c-2.3,1.2-4.4,1.8-6.3,1.8
		c-1.7,0-2.8-0.4-3.5-1.3c-0.7-0.8-1-1.9-1-3.1c0-1.2,0.4-2.7,1.1-4.7s1.8-4.1,3.2-6.3c-1.1,1.4-2.3,2.9-3.8,4.5
		c-1.4,1.6-2.9,3-4.4,4.3s-3,2.4-4.5,3.3c-1.5,0.9-2.8,1.3-4,1.3c-1.8,0-2.6-0.9-2.6-2.6c0-1.9,0.8-4.3,2.3-7.3
		c1.5-2.9,3.5-5.7,6.1-8.5c2.5-2.7,5.5-5.1,8.7-7c3.3-2,6.6-2.9,10.2-2.9c0.4-0.8,0.8-1.4,1.1-1.8c0.3-0.3,0.7-0.6,1-0.8l3.5-1
		l0.3,0.1c-0.4,0.4-0.8,0.9-1.2,1.6c-0.4,0.6-0.8,1.3-1.2,1.9c0.4,0,1,0,1.9,0.1c0.8,0.1,1.5,0.2,1.9,0.3c0.4,0.2,0.6,0.4,0.6,0.6
		c0,0.3-0.1,0.4-0.4,0.4c-0.5-0.2-1.3-0.3-2.3-0.4c-1-0.1-1.8-0.1-2.3-0.1c-3.8,6.8-6.7,12.1-8.5,16.1s-2.7,6.9-2.7,8.8
		c0,0.8,0.2,1.4,0.6,1.9s1.1,0.8,2.3,0.8c1.3,0,2.9-0.5,4.8-1.4c1.8-1,3.8-2.3,5.9-4s4.2-3.7,6.5-6c2.2-2.3,4.3-4.6,6.3-7.2
		c0.2-0.3,0.3-0.3,0.5-0.2C353.7,231.4,353.8,231.6,353.8,231.9z M334.2,222.4c-2.8,0-5.6,1-8.2,3s-4.9,4.4-6.9,7.1
		c-2,2.7-3.6,5.4-4.8,8.1c-1.2,2.7-1.8,4.6-1.8,5.9c0,0.7,0.3,1,0.8,1s1.3-0.3,2.3-1s2.2-1.6,3.6-2.7c1.3-1.1,2.7-2.4,4.1-4
		c1.4-1.5,2.7-3.1,3.8-4.9c1.3-2,2.6-4.1,3.9-6.4c1.3-2.3,2.4-4.3,3.4-6L334.2,222.4z"/>
	<path class="st3" d="M406.6,167.3c0,1.2-0.5,2.9-1.4,5.1c-0.9,2.3-2.2,4.9-4,7.8c-1.7,3-3.8,6.1-6.3,9.5s-5.3,6.8-8.4,10.1
		s-6.6,6.5-10.4,9.6s-7.8,5.8-12,8.1c-0.8,1.3-1.8,3.1-3.1,5.4c-1.3,2.3-2.7,4.6-4,7.2c-1.3,2.5-2.4,5-3.4,7.4s-1.4,4.5-1.4,6.1
		c0,2.7,1.2,4,3.6,4c2.1,0,4.3-0.6,6.5-1.8c2.3-1.2,4.4-2.6,6.5-4.3c2-1.7,4-3.4,5.8-5.3c1.8-1.9,3.3-3.6,4.6-5.1
		c0.6-0.6,0.9-0.7,1-0.4s0,0.6-0.4,0.9c-1.5,1.8-3.3,3.8-5.3,5.9c-2.1,2.1-4.2,4-6.5,5.8s-4.7,3.2-7.2,4.4s-5,1.8-7.5,1.8
		c-2.2,0-3.7-0.5-4.7-1.6c-1-1-1.4-2.3-1.4-3.8s0.6-3.7,1.9-6.5s2.8-5.7,4.6-8.8c1.8-3.1,3.5-6,5.3-8.8s3.1-4.8,3.9-6.3
		c1.4-2.4,2.9-5,4.5-7.6c1.5-2.6,3.1-5.2,4.6-7.7s2.9-4.9,4.3-7.2s2.7-4.3,3.8-6.1c1.4-2.2,2.9-4.2,4.4-6.1c1.5-1.9,3.4-3.8,5.8-5.8
		c3.2-2.7,6.1-4.7,8.8-6.1c2.7-1.4,4.5-2.1,5.4-2.1c0.7,0,1.2,0.2,1.6,0.6C406.4,166,406.6,166.5,406.6,167.3z M401,170.5
		c0-1.3-0.5-2-1.6-2c-0.4,0-0.9,0.1-1.4,0.4c-0.5,0.3-1.2,0.8-1.9,1.6c-0.8,0.8-1.8,1.9-2.9,3.3c-1.1,1.4-2.6,3.3-4.3,5.5
		c-0.7,0.9-1.6,2.3-2.8,4c-1.2,1.8-2.8,4.1-4.6,7c-1.9,2.9-4.1,6.4-6.8,10.7c-2.6,4.2-5.8,9.2-9.3,15c5-2.8,9.7-6.3,14.1-10.3
		c4.4-4.1,8.2-8.2,11.4-12.5c3.2-4.3,5.7-8.4,7.5-12.4C400.1,176.7,401,173.3,401,170.5z"/>
	<path class="st3" d="M402.7,203.3c-0.7,0.2-1.4,0.5-2.3,0.9c-0.8,0.5-1.5,1-1.9,1.7c-1.9,2.7-3.8,5.5-5.6,8.4
		c-1.8,2.9-3.5,5.9-5.2,8.8h15.6c0.3,0.2,0.4,0.3,0.4,0.5s-0.1,0.3-0.3,0.4c-0.7,0-1.7,0-3,0.1c-1.3,0-2.8,0.1-4.4,0.2
		c-1.6,0.1-3.2,0.2-4.9,0.3c-1.7,0.1-3.1,0.2-4.4,0.3c-2.3,4.2-4.1,7.7-5.4,10.7c-1.3,2.9-1.9,5.5-1.9,7.7c0,3,1.4,4.5,4.1,4.5
		c1.3,0,2.9-0.4,4.6-1.1c1.7-0.7,3.5-1.7,5.5-2.8c0.3-0.3,0.5-0.2,0.8,0.1s0.2,0.5-0.3,0.7c-2.8,1.8-5.5,3.2-7.9,4s-4.9,1.3-7.4,1.3
		c-1.3,0-2.5-0.4-3.5-1.2s-1.5-2.2-1.5-4.1c0-1.7,0.8-4.1,2.3-7.4c1.5-3.3,3.7-7.3,6.6-12c-1,0.1-2.2,0.2-3.7,0.3s-2.3,0.2-2.6,0.2
		c-0.4,0-0.6-0.2-0.6-0.5c0.3-0.6,0.9-1.2,1.6-1.8l6.4-0.1c0.8-1.3,1.6-2.7,2.5-4.2s1.8-3.1,2.8-4.6c0.9-1.5,1.9-3.1,2.8-4.5
		c1-1.5,1.8-2.8,2.6-4.1c0.9-0.4,2.2-1,3.8-1.6c1.6-0.7,3.1-1.2,4.3-1.6c0.2,0,0.3,0.1,0.4,0.3C403.1,202.9,403,203.1,402.7,203.3z"
		/>
	<path class="st3" d="M480.9,166.4c0,1.3-0.1,2.3-0.2,3s-0.3,1.1-0.4,1.4c-0.1,0.3-0.3,0.3-0.4,0.2s-0.2-0.3-0.2-0.4
		c0-0.6-0.1-1.4-0.4-2.4s-0.9-2-1.8-2.9c-0.9-1-2.1-1.8-3.7-2.5s-3.6-1.1-6.1-1.1c-2.2,0-4.4,0.3-6.7,0.9c-2.3,0.6-4.8,1.8-7.5,3.6
		s-5.5,4.3-8.6,7.5s-6.4,7.3-10,12.4c-3.6,5.1-7.5,11.2-11.7,18.4s-8.8,15.8-13.9,25.7c0.6-0.5,1.5-1.3,2.8-2.3s2.6-2,4.1-3
		s3-1.9,4.4-2.6c1.4-0.8,2.6-1.1,3.6-1.1c0.8,0,1.1,0.3,1.1,0.9c0,0.5-0.4,1.3-1.1,2.3s-1.5,2.4-2.6,4.1c-1.1,1.8-2.2,3.6-3.2,5.6
		s-1.9,4-2.7,5.9c-0.8,1.9-1.1,3.5-1.1,4.6c0,1.3,0.3,2.3,1,3s1.6,1,2.8,1c1.9,0,4.6-1.3,8.2-3.8c3.5-2.5,7.5-6.8,12-12.8
		c0.2-0.2,0.3-0.3,0.5-0.3s0.3,0.2,0.3,0.5c-1.6,2.3-3.4,4.5-5.6,6.8c-2.1,2.3-4.3,4.3-6.5,6.1s-4.4,3.3-6.6,4.5
		c-2.2,1.1-4.2,1.7-6.1,1.7c-1.4,0-2.6-0.4-3.4-1.2s-1.3-1.9-1.3-3.3c0-1.3,0.5-3.1,1.4-5.1c0.9-2.1,1.9-4.2,3.1-6.3
		c1.1-2.1,2.2-4.1,3.1-5.9c0.9-1.8,1.4-3.1,1.4-3.8c0-0.4-0.1-0.6-0.4-0.6c-0.8,0-2.1,0.7-4.1,2.1c-2,1.4-4.4,4.1-7.3,8
		c-1.2,2.1-2.4,4.3-3.6,6.5c-1.3,2.3-2.3,4.3-3.3,6c-0.7,1.3-1.3,2-1.9,2c-0.4,0-1-0.1-1.6-0.3c-0.7-0.2-1-0.6-1-1.2
		c0-0.4,0.1-0.9,0.4-1.4c3.5-6.4,6.9-12.4,10.3-18c3.3-5.6,6.7-11.2,10.2-16.6c4-6.3,8.2-12.7,12.5-19.2s8.7-12.5,13.2-17.8
		c4.5-5.4,9.1-9.7,13.7-13.1c4.6-3.4,9.3-5.1,14-5.1c1.2,0,2.4,0.1,3.6,0.4c1.3,0.3,2.4,0.8,3.6,1.4c1.1,0.7,2,1.6,2.8,2.8
		C480.5,162.9,480.9,164.5,480.9,166.4z"/>
</g>
<g>
	<g>
		<path class="st2" d="M466.6,168.4c2.5,0,4.5,2.1,4.5,4.6c0,2.6-2,4.6-4.6,4.6c-2.5,0-4.6-2-4.6-4.6
			C462,170.4,464.1,168.4,466.6,168.4L466.6,168.4z M466.6,169.1c-2,0-3.7,1.7-3.7,3.9s1.7,3.9,3.7,3.9c2.1,0,3.7-1.7,3.7-3.9
			C470.3,170.9,468.7,169.1,466.6,169.1L466.6,169.1L466.6,169.1z M465.7,175.7h-0.8v-5.2c0.4-0.1,0.8-0.1,1.5-0.1
			c0.8,0,1.3,0.2,1.6,0.4c0.3,0.2,0.5,0.6,0.5,1.1c0,0.7-0.5,1.1-1,1.3l0,0c0.5,0.1,0.8,0.5,0.9,1.3s0.2,1.1,0.3,1.3h-0.9
			c-0.1-0.2-0.2-0.6-0.3-1.3c-0.1-0.7-0.5-0.9-1.1-0.9h-0.6L465.7,175.7L465.7,175.7z M465.7,172.8h0.6c0.7,0,1.3-0.2,1.3-0.9
			c0-0.5-0.3-0.9-1.3-0.9c-0.3,0-0.5,0-0.6,0V172.8z"/>
	</g>
	<g>
		<path class="st4" d="M29.9,206.3c-0.2,0.1-0.3,0.1-0.5,0.1s-0.3-0.1-0.3-0.3c0.3-0.7,0.5-1.5,0.8-2.4c0.3-1,0.5-1.8,0.6-2.6
			c0-0.8,0.5-1.5,1.5-2.1c2.2-1.2,4.6-2.3,7.3-3.3s5.4-1.8,8.1-2.4c4.9-1,10.1-1.5,15.4-1.5c6.6,0,11.7,0.7,15.4,2.2
			c3.6,1.5,5.5,4.1,5.5,7.8c0,1.8-0.6,3.7-1.8,5.7c-1.2,2-2.9,3.8-5.1,5.5s-4.8,3.1-8,4.3c-3.1,1.2-6.6,2-10.4,2.4
			c-0.8,0.1-1,0.4-0.8,1c1.6,2.9,3.8,6.6,6.6,11s6,9.1,9.5,14c1.8,2.5,3.9,4.9,6.2,7.3c2.3,2.3,4.8,4.4,7.5,6.2
			c2.7,1.8,5.5,3.2,8.6,4.3c3.1,1.1,6.2,1.6,9.5,1.6c5,0,10-1.3,14.9-3.9c0.5-0.3,0.8-0.3,0.8,0.3c0,0.3-0.2,0.5-0.5,0.6
			c-2.7,1.4-5.5,2.6-8.4,3.5s-6.1,1.3-9.4,1.3c-4.8,0-8.9-0.5-12.5-1.4c-3.6-1-6.9-2.4-9.9-4.5c-3-2-5.9-4.6-8.6-7.8
			s-5.5-7-8.5-11.5c-0.8-1.3-1.8-3-3-5s-2.4-4-3.6-6.1c-1.3-2.1-2.4-4.1-3.6-6.1c-1.1-2-2.1-3.6-2.8-4.8c0-0.3,0.1-0.5,0.4-0.5
			c3.8,0,7.2-0.3,10.4-1c3.1-0.7,5.9-1.7,8.2-3.1c2.3-1.4,4.1-3.1,5.4-5.3c1.3-2.1,1.9-4.6,1.9-7.5c0-1-0.2-2.1-0.6-3.2
			c-0.4-1.1-1-2.1-2-3s-2.2-1.6-3.8-2.2c-1.6-0.6-3.6-0.9-6-0.9c-0.8,0-1.7,0.1-2.4,0.3c-0.8,0.2-1.5,0.6-2.1,1.3
			c-0.9,1.1-2.2,2.9-3.9,5.5s-3.5,5.5-5.5,8.8s-4.1,6.9-6.3,10.7s-4.2,7.4-6.2,11s-3.7,6.8-5.2,9.7s-2.6,5.2-3.4,6.8
			c-0.1,0.2-0.3,0.3-0.5,0.3c-0.4-0.1-0.8-0.1-1.3-0.2c-0.4,0-0.8-0.1-1.3-0.1c-0.4,0-0.9,0-1.5,0s-1.2,0.1-1.9,0.3
			c-1,0.6-2,1.4-2.9,2.4c-0.2,0-0.4,0-0.6-0.1s-0.2-0.2-0.1-0.4c7.7-11.2,14.2-21.2,19.4-30s9.8-16.8,13.7-24.1
			c0.3-0.7,0.3-1.1,0.2-1.3s-0.4-0.3-0.8-0.3c-2.5,0.2-5,0.7-7.5,1.5s-4.9,1.8-7,3c-1.4,0.8-2.8,2-4,3.4
			C31.9,203.1,30.8,204.6,29.9,206.3z"/>
		<path class="st4" d="M113.2,232.5c-1.4,1.8-3.1,3.6-5.1,5.5s-4.1,3.6-6.4,5.1s-4.7,2.8-7.2,3.8s-4.9,1.4-7.3,1.4
			c-3.9,0-5.9-1.8-5.9-5.3c0-2.3,0.6-4.9,1.8-7.6c1.2-2.7,2.8-5.2,4.7-7.5c1.9-2.3,4-4.2,6.3-5.8c2.3-1.5,4.5-2.3,6.6-2.3
			c1.2,0,2,0.2,2.4,0.6c0.5,0.4,0.7,1,0.7,1.6c0,1-0.3,2.1-0.9,3.3s-1.6,2.3-2.8,3.3c-1.3,1-2.8,1.9-4.8,2.6
			c-1.9,0.7-4.2,1.1-6.9,1.1c-0.4,0.8-0.9,1.9-1.4,3.6c-0.5,1.6-0.8,3.3-0.8,5c0,3.4,1.5,5.1,4.6,5.1c1.9,0,3.9-0.5,6-1.4
			c2-0.9,4-2.1,6-3.4c1.9-1.4,3.7-2.9,5.3-4.5c1.6-1.6,3-3.2,4.1-4.6c0.2-0.2,0.4-0.2,0.6-0.1C113.1,232.1,113.2,232.3,113.2,232.5z
			 M100.1,222.7c0-1.1-0.5-1.6-1.6-1.6c-0.8,0-1.7,0.3-2.6,0.9c-0.9,0.6-1.7,1.4-2.6,2.4c-0.8,1-1.6,2.1-2.4,3.3s-1.4,2.3-1.9,3.4
			c0.2,0.1,0.5,0.1,0.9,0.2c0.4,0,0.8,0.1,1,0.1c2.4,0,4.6-0.9,6.4-2.6C99.2,227.1,100.1,225.1,100.1,222.7z"/>
		<path class="st4" d="M151.3,230.3c-1.9,2.3-4,4.7-6.3,7.1c-2.3,2.4-4.6,4.5-7,6.5c-2.3,1.9-4.7,3.5-7,4.6
			c-2.3,1.2-4.4,1.8-6.3,1.8c-1.7,0-2.8-0.4-3.5-1.3c-0.7-0.8-1-1.9-1-3.1c0-1.2,0.4-2.7,1.1-4.7s1.8-4.1,3.2-6.3
			c-1.1,1.4-2.3,2.9-3.8,4.5c-1.4,1.6-2.9,3-4.4,4.3s-3,2.4-4.5,3.3c-1.5,0.9-2.8,1.3-4,1.3c-1.8,0-2.6-0.9-2.6-2.6
			c0-1.9,0.8-4.3,2.3-7.3c1.5-2.9,3.5-5.7,6.1-8.5c2.6-2.7,5.5-5.1,8.7-7c3.3-2,6.6-2.9,10.2-2.9c0.4-0.8,0.8-1.4,1.1-1.8
			c0.3-0.3,0.7-0.6,1-0.8l3.5-1l0.3,0.1c-0.4,0.4-0.8,0.9-1.2,1.6c-0.4,0.6-0.8,1.3-1.2,1.9c0.4,0,1,0,1.9,0.1
			c0.8,0.1,1.5,0.2,1.9,0.3c0.4,0.2,0.6,0.4,0.6,0.6c0,0.3-0.1,0.4-0.4,0.4c-0.5-0.2-1.3-0.3-2.3-0.4c-1-0.1-1.8-0.1-2.3-0.1
			c-3.8,6.8-6.7,12.1-8.5,16.1s-2.7,6.9-2.7,8.8c0,0.8,0.2,1.4,0.6,1.9s1.1,0.8,2.3,0.8c1.3,0,2.9-0.5,4.8-1.4c1.8-1,3.8-2.3,5.9-4
			c2.1-1.7,4.2-3.7,6.5-6c2.2-2.3,4.3-4.6,6.3-7.2c0.2-0.3,0.3-0.3,0.5-0.2C151.2,229.8,151.3,230,151.3,230.3z M131.7,220.7
			c-2.8,0-5.6,1-8.2,3s-4.9,4.4-6.9,7.1c-2,2.7-3.6,5.4-4.8,8.1c-1.2,2.7-1.8,4.6-1.8,5.9c0,0.7,0.3,1,0.8,1s1.3-0.3,2.3-1
			s2.2-1.6,3.6-2.7c1.3-1.1,2.7-2.4,4.1-4c1.4-1.5,2.7-3.1,3.8-4.9c1.3-2,2.6-4.1,3.9-6.4c1.3-2.3,2.4-4.3,3.4-6L131.7,220.7z"/>
		<path class="st4" d="M204.2,165.7c0,1.2-0.5,2.9-1.4,5.1c-0.9,2.3-2.2,4.9-4,7.8c-1.7,3-3.8,6.1-6.3,9.5s-5.3,6.8-8.4,10.1
			c-3.1,3.3-6.6,6.5-10.4,9.6c-3.8,3.1-7.8,5.8-12,8.1c-0.8,1.3-1.8,3.1-3.1,5.4c-1.3,2.3-2.7,4.6-4,7.2c-1.3,2.5-2.4,5-3.4,7.4
			s-1.4,4.5-1.4,6.1c0,2.7,1.2,4,3.6,4c2.1,0,4.3-0.6,6.5-1.8c2.3-1.2,4.4-2.6,6.5-4.3c2-1.7,4-3.4,5.8-5.3c1.8-1.9,3.3-3.6,4.6-5.1
			c0.6-0.6,0.9-0.7,1-0.4s0,0.6-0.4,0.9c-1.5,1.8-3.3,3.8-5.3,5.9c-2.1,2.1-4.2,4-6.5,5.8s-4.7,3.2-7.2,4.4s-5,1.8-7.5,1.8
			c-2.2,0-3.7-0.5-4.7-1.6c-1-1-1.4-2.3-1.4-3.8s0.6-3.7,1.9-6.5c1.3-2.8,2.8-5.7,4.6-8.8s3.5-6,5.3-8.8s3.1-4.8,3.9-6.3
			c1.4-2.4,2.9-5,4.5-7.6c1.5-2.6,3.1-5.2,4.6-7.7s2.9-4.9,4.3-7.2c1.4-2.3,2.7-4.3,3.8-6.1c1.4-2.2,2.9-4.2,4.4-6.1
			c1.5-1.9,3.4-3.8,5.8-5.8c3.2-2.7,6.1-4.7,8.8-6.1c2.7-1.4,4.5-2.1,5.4-2.1c0.7,0,1.2,0.2,1.6,0.6
			C204,164.3,204.2,164.9,204.2,165.7z M198.5,168.9c0-1.3-0.5-2-1.6-2c-0.4,0-0.9,0.1-1.4,0.4c-0.5,0.3-1.2,0.8-1.9,1.6
			c-0.8,0.8-1.8,1.9-2.9,3.3c-1.1,1.4-2.6,3.3-4.3,5.5c-0.7,0.9-1.6,2.3-2.8,4c-1.2,1.8-2.8,4.1-4.6,7c-1.9,2.9-4.1,6.4-6.8,10.7
			c-2.6,4.2-5.8,9.2-9.3,15c5-2.8,9.7-6.3,14.1-10.4c4.4-4.1,8.2-8.2,11.4-12.5s5.7-8.4,7.5-12.4
			C197.6,175.1,198.5,171.7,198.5,168.9z"/>
		<path class="st4" d="M324.6,186c0.4,0.4,0.3,0.7-0.3,0.9c-0.3-0.1-0.5-0.1-0.9-0.1c-0.3,0-0.5,0-0.8,0c-0.8,0-2.1,0.3-3.7,0.8
			s-3.9,1.8-6.8,3.8s-6.6,5.1-11.1,9.2c-4.5,4.1-10,9.8-16.5,17.1c-1.7,1.8-3.6,4.1-5.8,6.8c-2.2,2.7-4.4,5.4-6.6,8.1
			c-2.2,2.7-4.2,5.3-6.1,7.8c-1.8,2.5-3.2,4.5-4.1,6.1c-0.2,0.3-0.4,0.6-0.8,0.9c-0.3,0.3-0.7,0.5-1.1,0.6c-1.1,0.2-2.2,0.4-3.2,0.8
			c-1,0.4-1.9,0.9-2.6,1.6c-0.8,0-0.8-0.4-0.3-1.3c0.3-0.3,0.5-1.2,0.7-2.9s0.4-3.7,0.6-6.2c0.2-2.5,0.3-5.2,0.4-8.3
			c0.1-3.1,0.2-6.1,0.3-9.2c0-3.1,0.1-6.1,0.1-8.9c0-2.8,0.1-5.3,0.1-7.4c0-1.2-0.3-1.8-0.9-1.8c-0.3,0-0.7,0.2-1.3,0.6
			c-0.7,0.6-1.9,1.7-3.6,3.3c-1.7,1.6-3.8,3.5-6.1,5.8c-2.4,2.3-5,4.8-8,7.5c-2.9,2.8-5.9,5.6-8.8,8.5c-3,2.9-5.9,5.9-8.7,8.8
			c-2.8,2.9-5.4,5.7-7.7,8.3c-0.3,0.3-0.5,0.5-0.8,0.8s-0.5,0.4-0.8,0.4c-1.3,0-2.4,0.1-3.3,0.4c-1,0.3-1.9,0.6-2.7,1.1
			c-0.6,0-0.7-0.4-0.4-1.1c0.7-1,1.4-2.3,2.1-4c0.7-1.6,1.5-3.5,2.4-5.7c0.4-1,1-2.7,1.9-5c0.8-2.3,1.8-4.9,2.8-7.8
			c1-2.9,2-5.9,3.1-9c1-3.1,2-6.1,2.9-8.8s1.6-5.1,2.2-7.1c0.6-2,0.9-3.2,0.9-3.8c0-1.2-0.6-1.8-1.9-1.8c-1.2,0-2.4,0.2-3.6,0.5
			c-1.2,0.3-2.2,0.5-2.9,0.5c-0.4,0-0.6-0.2-0.7-0.5c0-0.3,0.2-0.5,0.7-0.6c4-0.8,7.1-1.4,9.3-1.8c2.2-0.5,3.8-0.8,4.8-1.1
			s1.7-0.4,2-0.6c0.3-0.1,0.5-0.2,0.7-0.2c0.4,0,0.6,0.2,0.6,0.5s-0.1,0.6-0.4,0.8c-0.3,0.3-0.5,0.7-0.9,1.3s-0.7,1.4-1.1,2.3
			c-0.4,0.9-0.8,1.8-1.2,2.8s-0.8,2-1.1,2.9c-2.2,5.8-4.3,11.9-6.3,18.4c-2.1,6.5-4,12.9-5.7,19.1c-0.3,0.9-0.3,1.4-0.1,1.4
			s0.4-0.1,0.7-0.3c3.6-3.3,7.5-7.1,11.7-11.2c4.2-4.1,8.5-8.3,12.9-12.5s8.7-8.3,12.9-12.3s8-7.5,11.5-10.7c0.3-0.1,0.5,0,0.7,0.3
			s0.2,0.5,0.1,0.6c-0.4,0.2-0.8,0.5-1.1,1c-0.3,0.5-0.5,1-0.6,1.6c-0.2,1.4-0.3,3.2-0.5,5.4s-0.3,4.5-0.4,7s-0.2,5.1-0.3,7.7
			c0,2.6-0.1,5.2-0.1,7.7c0,3.8,0,7.1,0.1,9.7c0.1,2.6,0.1,4.7,0.1,6.3c0,0.6,0.1,0.9,0.3,0.9c0.3,0,0.5-0.2,0.8-0.5
			c1.5-1.8,3.2-3.8,5-6c1.8-2.1,3.6-4.3,5.5-6.6s3.8-4.5,5.6-6.6c1.9-2.2,3.6-4.2,5.2-6c1.9-2.2,4-4.5,6.3-6.9s4.5-4.8,6.8-7.2
			c2.3-2.3,4.5-4.6,6.7-6.8s4.1-4.1,5.9-5.6c1.6-1.4,3.2-2.8,5-4c1.7-1.3,3.7-1.9,5.8-1.9c0.2,0,0.5,0.1,0.9,0.2
			c0.5,0.1,0.9,0.3,1.4,0.4c0.5,0.2,0.9,0.3,1.3,0.5C324.2,185.8,324.5,185.9,324.6,186z"/>
		<path class="st4" d="M316.3,232.5c-1.4,1.8-3.1,3.6-5.1,5.5s-4.1,3.6-6.4,5.1s-4.7,2.8-7.2,3.8s-4.9,1.4-7.3,1.4
			c-3.9,0-5.9-1.8-5.9-5.3c0-2.3,0.6-4.9,1.8-7.6c1.2-2.7,2.8-5.2,4.7-7.5c1.9-2.3,4-4.2,6.3-5.8c2.3-1.5,4.5-2.3,6.6-2.3
			c1.2,0,2,0.2,2.4,0.6c0.5,0.4,0.7,1,0.7,1.6c0,1-0.3,2.1-0.9,3.3s-1.6,2.3-2.8,3.3c-1.3,1-2.8,1.9-4.8,2.6
			c-1.9,0.7-4.2,1.1-6.9,1.1c-0.4,0.8-0.9,1.9-1.4,3.6c-0.5,1.6-0.8,3.3-0.8,5c0,3.4,1.5,5.1,4.6,5.1c1.9,0,3.9-0.5,6-1.4
			c2-0.9,4-2.1,6-3.4c1.9-1.4,3.7-2.9,5.3-4.5c1.6-1.6,3-3.2,4.1-4.6c0.2-0.2,0.4-0.2,0.6-0.1C316.2,232.1,316.3,232.3,316.3,232.5z
			 M303.2,222.7c0-1.1-0.5-1.6-1.6-1.6c-0.8,0-1.7,0.3-2.6,0.9c-0.9,0.6-1.7,1.4-2.6,2.4c-0.8,1-1.6,2.1-2.4,3.3s-1.4,2.3-1.9,3.4
			c0.2,0.1,0.5,0.1,0.9,0.2c0.4,0,0.8,0.1,1,0.1c2.4,0,4.6-0.9,6.4-2.6C302.3,227.1,303.2,225.1,303.2,222.7z"/>
		<path class="st4" d="M354.4,230.3c-1.9,2.3-4,4.7-6.3,7.1c-2.3,2.4-4.6,4.5-7,6.5c-2.3,1.9-4.7,3.5-7,4.6
			c-2.3,1.2-4.4,1.8-6.3,1.8c-1.7,0-2.8-0.4-3.5-1.3c-0.7-0.8-1-1.9-1-3.1c0-1.2,0.4-2.7,1.1-4.7s1.8-4.1,3.2-6.3
			c-1.1,1.4-2.3,2.9-3.8,4.5c-1.4,1.6-2.9,3-4.4,4.3s-3,2.4-4.5,3.3c-1.5,0.9-2.8,1.3-4,1.3c-1.8,0-2.6-0.9-2.6-2.6
			c0-1.9,0.8-4.3,2.3-7.3c1.5-2.9,3.5-5.7,6.1-8.5c2.5-2.7,5.5-5.1,8.7-7c3.3-2,6.6-2.9,10.2-2.9c0.4-0.8,0.8-1.4,1.1-1.8
			c0.3-0.3,0.7-0.6,1-0.8l3.5-1l0.3,0.1c-0.4,0.4-0.8,0.9-1.2,1.6c-0.4,0.6-0.8,1.3-1.2,1.9c0.4,0,1,0,1.9,0.1
			c0.8,0.1,1.5,0.2,1.9,0.3c0.4,0.2,0.6,0.4,0.6,0.6c0,0.3-0.1,0.4-0.4,0.4c-0.5-0.2-1.3-0.3-2.3-0.4c-1-0.1-1.8-0.1-2.3-0.1
			c-3.8,6.8-6.7,12.1-8.5,16.1s-2.7,6.9-2.7,8.8c0,0.8,0.2,1.4,0.6,1.9s1.1,0.8,2.3,0.8c1.3,0,2.9-0.5,4.8-1.4c1.8-1,3.8-2.3,5.9-4
			s4.2-3.7,6.5-6c2.2-2.3,4.3-4.6,6.3-7.2c0.2-0.3,0.3-0.3,0.5-0.2C354.3,229.8,354.4,230,354.4,230.3z M334.8,220.7
			c-2.8,0-5.6,1-8.2,3s-4.9,4.4-6.9,7.1c-2,2.7-3.6,5.4-4.8,8.1c-1.2,2.7-1.8,4.6-1.8,5.9c0,0.7,0.3,1,0.8,1s1.3-0.3,2.3-1
			s2.2-1.6,3.6-2.7c1.3-1.1,2.7-2.4,4.1-4c1.4-1.5,2.7-3.1,3.8-4.9c1.3-2,2.6-4.1,3.9-6.4c1.3-2.3,2.4-4.3,3.4-6L334.8,220.7z"/>
		<path class="st4" d="M407.3,165.7c0,1.2-0.5,2.9-1.4,5.1c-0.9,2.3-2.2,4.9-4,7.8c-1.7,3-3.8,6.1-6.3,9.5s-5.3,6.8-8.4,10.1
			s-6.6,6.5-10.4,9.6s-7.8,5.8-12,8.1c-0.8,1.3-1.8,3.1-3.1,5.4c-1.3,2.3-2.7,4.6-4,7.2c-1.3,2.5-2.4,5-3.4,7.4s-1.4,4.5-1.4,6.1
			c0,2.7,1.2,4,3.6,4c2.1,0,4.3-0.6,6.5-1.8c2.3-1.2,4.4-2.6,6.5-4.3c2-1.7,4-3.4,5.8-5.3c1.8-1.9,3.3-3.6,4.6-5.1
			c0.6-0.6,0.9-0.7,1-0.4s0,0.6-0.4,0.9c-1.5,1.8-3.3,3.8-5.3,5.9c-2,2.1-4.2,4-6.5,5.8s-4.7,3.2-7.2,4.4s-5,1.8-7.5,1.8
			c-2.2,0-3.7-0.5-4.7-1.6c-1-1-1.4-2.3-1.4-3.8s0.6-3.7,1.9-6.5s2.8-5.7,4.6-8.8c1.8-3.1,3.5-6,5.3-8.8s3.1-4.8,3.9-6.3
			c1.4-2.4,2.9-5,4.5-7.6c1.5-2.6,3.1-5.2,4.6-7.7s2.9-4.9,4.3-7.2s2.7-4.3,3.8-6.1c1.4-2.2,2.9-4.2,4.4-6.1
			c1.5-1.9,3.4-3.8,5.8-5.8c3.2-2.7,6.1-4.7,8.8-6.1c2.7-1.4,4.5-2.1,5.4-2.1c0.7,0,1.2,0.2,1.6,0.6
			C407.1,164.3,407.3,164.9,407.3,165.7z M401.6,168.9c0-1.3-0.5-2-1.6-2c-0.4,0-0.9,0.1-1.4,0.4c-0.5,0.3-1.2,0.8-1.9,1.6
			c-0.8,0.8-1.8,1.9-2.9,3.3c-1.1,1.4-2.6,3.3-4.3,5.5c-0.7,0.9-1.6,2.3-2.8,4c-1.2,1.8-2.8,4.1-4.6,7c-1.9,2.9-4.1,6.4-6.8,10.7
			c-2.6,4.2-5.8,9.2-9.3,15c5-2.8,9.7-6.3,14.1-10.4c4.4-4.1,8.2-8.2,11.4-12.5c3.2-4.3,5.7-8.4,7.5-12.4
			C400.7,175.1,401.6,171.7,401.6,168.9z"/>
		<path class="st4" d="M403.3,201.7c-0.7,0.2-1.4,0.5-2.3,0.9c-0.8,0.5-1.5,1-1.9,1.7c-1.9,2.7-3.8,5.5-5.6,8.4
			c-1.8,2.9-3.5,5.9-5.2,8.8h15.6c0.3,0.2,0.4,0.3,0.4,0.5s-0.1,0.3-0.3,0.4c-0.7,0-1.7,0-3,0.1c-1.3,0-2.8,0.1-4.4,0.2
			c-1.6,0.1-3.2,0.2-4.9,0.3c-1.7,0.1-3.1,0.2-4.4,0.3c-2.3,4.2-4.1,7.7-5.4,10.7c-1.3,2.9-1.9,5.5-1.9,7.7c0,3,1.4,4.5,4.1,4.5
			c1.3,0,2.9-0.4,4.6-1.1c1.7-0.7,3.5-1.7,5.5-2.8c0.3-0.3,0.5-0.2,0.8,0.1s0.2,0.5-0.3,0.7c-2.8,1.8-5.5,3.2-7.9,4
			s-4.9,1.3-7.4,1.3c-1.3,0-2.5-0.4-3.5-1.2s-1.5-2.2-1.5-4.1c0-1.7,0.8-4.1,2.3-7.4c1.5-3.3,3.7-7.3,6.6-12c-1,0.1-2.2,0.2-3.7,0.3
			s-2.3,0.2-2.6,0.2c-0.4,0-0.6-0.2-0.6-0.5c0.3-0.6,0.9-1.2,1.6-1.8l6.4-0.1c0.8-1.3,1.6-2.7,2.5-4.2s1.8-3.1,2.8-4.6
			c0.9-1.5,1.9-3.1,2.8-4.5c1-1.5,1.8-2.8,2.6-4.1c0.9-0.4,2.2-1,3.8-1.6c1.6-0.7,3.1-1.2,4.3-1.6c0.2,0,0.3,0.1,0.4,0.3
			C403.8,201.3,403.6,201.5,403.3,201.7z"/>
		<path class="st4" d="M481.5,164.8c0,1.3-0.1,2.3-0.2,3s-0.3,1.1-0.4,1.4c-0.1,0.3-0.3,0.3-0.4,0.2s-0.2-0.3-0.2-0.4
			c0-0.6-0.1-1.4-0.4-2.4s-0.9-2-1.8-2.9c-0.9-1-2.1-1.8-3.7-2.5s-3.6-1.1-6.1-1.1c-2.2,0-4.4,0.3-6.7,0.9c-2.3,0.6-4.8,1.8-7.5,3.6
			s-5.5,4.3-8.6,7.5s-6.4,7.3-10,12.4c-3.6,5.1-7.5,11.2-11.7,18.4s-8.8,15.8-13.9,25.7c0.6-0.5,1.5-1.3,2.8-2.3s2.6-2,4.1-3
			s3-1.9,4.4-2.6c1.4-0.8,2.6-1.1,3.6-1.1c0.8,0,1.1,0.3,1.1,0.9c0,0.5-0.4,1.3-1.1,2.3s-1.5,2.4-2.6,4.1c-1.1,1.8-2.2,3.6-3.2,5.6
			s-1.9,4-2.7,5.9c-0.8,1.9-1.1,3.5-1.1,4.6c0,1.3,0.3,2.3,1,3s1.6,1,2.8,1c1.9,0,4.6-1.3,8.2-3.8c3.5-2.5,7.5-6.8,12-12.8
			c0.2-0.2,0.3-0.3,0.5-0.3s0.3,0.2,0.3,0.5c-1.6,2.3-3.4,4.5-5.6,6.8c-2.1,2.3-4.3,4.3-6.5,6.1s-4.4,3.3-6.6,4.5
			c-2.2,1.1-4.2,1.7-6.1,1.7c-1.4,0-2.6-0.4-3.4-1.2s-1.3-1.9-1.3-3.3c0-1.3,0.5-3.1,1.4-5.1c0.9-2.1,1.9-4.2,3.1-6.3
			c1.1-2.1,2.2-4.1,3.1-5.9c0.9-1.8,1.4-3.1,1.4-3.8c0-0.4-0.1-0.6-0.4-0.6c-0.8,0-2.1,0.7-4.1,2.1c-2,1.4-4.4,4.1-7.3,8
			c-1.2,2.1-2.4,4.3-3.6,6.5c-1.3,2.3-2.3,4.3-3.3,6c-0.7,1.3-1.3,2-1.9,2c-0.4,0-1-0.1-1.6-0.3c-0.7-0.2-1-0.6-1-1.2
			c0-0.4,0.1-0.9,0.4-1.4c3.5-6.4,6.9-12.4,10.3-18c3.3-5.6,6.7-11.2,10.2-16.6c4-6.3,8.2-12.7,12.5-19.2s8.7-12.5,13.2-17.8
			c4.5-5.4,9.1-9.7,13.7-13.1c4.6-3.4,9.3-5.1,14-5.1c1.2,0,2.4,0.1,3.6,0.4c1.3,0.3,2.4,0.8,3.6,1.4c1.1,0.7,2,1.6,2.8,2.8
			C481.2,161.3,481.5,162.9,481.5,164.8z"/>
	</g>
</g>
<g class="st5">
	<path class="st2" d="M190.2,301.9l-0.1-22.8l-8.4,19.3h-5.8l-8.4-19.3v22.8h-8v-35.2h9.8l9.5,20.9l9.5-20.9h9.7v35.2H190.2z"/>
	<path class="st2" d="M214.1,273.8v7h16.8v7h-16.8v7.1h19.1v7h-28.1v-35.1h27.5v7H214.1z"/>
	<path class="st2" d="M254.1,266.7c11,0,18.7,7.1,18.7,17.6c0,10.4-7.7,17.6-19,17.6H239v-35.1H254.1z M247.9,294.7h6.4
		c5.5,0,9.4-4.2,9.4-10.4c0-6.2-4.1-10.5-9.8-10.5h-6V294.7z"/>
	<path class="st2" d="M277.5,301.9v-35.1h8.9v35.1H277.5z"/>
	<path class="st2" d="M301.4,295.4l-2.6,6.5h-9.2l15.2-35.1h9.2l14.8,35.1h-9.5l-2.5-6.5H301.4z M309.1,275.6l-5.1,13h10.1
		L309.1,275.6z"/>
</g>
<g class="st5">
	<path class="st6" d="M98.7,331.5v4.2h7.6v2.3h-7.6v4.3h8.7v2.3H96.1v-15.5h11.1v2.3H98.7z"/>
	<path class="st6" d="M121.6,344.6h-2.5v-2c-0.8,1.4-2.3,2.1-4.1,2.1c-3.4,0-5.6-2.5-5.6-6c0-3.5,2.3-6,5.6-6c1.9,0,3.3,0.8,4.2,2.1
		v-6.7h2.5V344.6z M119.1,338.8c0-2.3-1.5-3.9-3.6-3.9s-3.6,1.6-3.6,3.9c0,2.2,1.5,3.8,3.6,3.8C117.6,342.6,119.1,341,119.1,338.8z"
		/>
	<path class="st6" d="M136.2,344.6h-2.5v-2.3c-0.8,1.6-2.3,2.4-4.2,2.4c-2.7,0-4.3-1.7-4.3-4.5v-7.3h2.5v6.6c0,1.8,1,2.9,2.7,2.9
		c2,0,3.2-1.6,3.2-3.7v-5.8h2.5V344.6z"/>
	<path class="st6" d="M149.6,334.7l-1.4,1.6c-0.8-0.8-1.9-1.3-3.4-1.3c-2,0-3.5,1.5-3.5,3.8s1.5,3.8,3.5,3.8c1.5,0,2.7-0.5,3.5-1.4
		l1.4,1.4c-1.1,1.4-2.8,2.2-5,2.2c-3.5,0-5.9-2.4-5.9-6c0-3.6,2.4-6,5.9-6C146.9,332.8,148.6,333.5,149.6,334.7z"/>
	<path class="st6" d="M159,343.2c-0.8,1-2.2,1.5-3.9,1.5c-2.5,0-4.1-1.6-4.1-3.7c0-2.1,1.6-3.5,4.4-3.5h3.6v-0.4
		c0-1.5-1-2.4-2.8-2.4c-1.1,0-2.3,0.4-3.5,1.2l-1-1.8c1.6-1,2.8-1.5,5.1-1.5c3,0,4.7,1.5,4.8,4.1l0,7.7H159V343.2z M159,340.5v-1.1
		h-3.2c-1.7,0-2.4,0.4-2.4,1.6c0,1.1,0.9,1.7,2.3,1.7C157.4,342.7,158.8,341.8,159,340.5z"/>
	<path class="st6" d="M171.6,343.9c-0.9,0.6-1.9,0.9-2.9,0.9c-1.8,0-3.3-1-3.3-3.4v-6.1h-1.7v-1.9h1.7v-3.2h2.5v3.2h3.5v1.9h-3.5
		v5.6c0,1.2,0.5,1.6,1.3,1.6c0.5,0,1.1-0.2,1.8-0.5L171.6,343.9z"/>
	<path class="st6" d="M184.1,339.7h-8.9c0.4,1.8,1.8,2.9,3.7,2.9c1.3,0,2.5-0.5,3.3-1.4l1.3,1.4c-1.2,1.3-2.8,2-4.9,2
		c-3.6,0-6-2.4-6-6c0-3.6,2.5-6,6-6C182.8,332.8,184.4,335.5,184.1,339.7z M181.9,337.9c-0.1-1.9-1.4-3.1-3.3-3.1
		c-1.9,0-3.2,1.2-3.5,3.1H181.9z"/>
	<path class="st6" d="M188.7,343.4c0,0.4-0.2,0.8-0.4,1.2l-1.3,1.9h-1.3l0.8-1.9c-0.4-0.3-0.6-0.7-0.6-1.2c0-0.8,0.6-1.4,1.4-1.4
		C188,341.9,188.7,342.5,188.7,343.4z"/>
	<path class="st6" d="M197.4,344.6v-15.5h2.6v15.5H197.4z"/>
	<path class="st6" d="M215.2,337.3v7.3h-2.5V338c0-1.8-1.1-2.9-2.8-2.9c-1.9,0-3.2,1.4-3.3,3.2v6.3h-2.5v-11.8h2.5v2.3
		c0.8-1.6,2.3-2.3,4.3-2.3C213.5,332.8,215.2,334.5,215.2,337.3z"/>
	<path class="st6" d="M226.2,333.9l-0.9,1.9c-1-0.6-2.3-1-3.4-1c-1,0-1.7,0.3-1.7,1.2c0,2.2,6.3,1,6.2,5.3c0,2.4-2.1,3.5-4.5,3.5
		c-1.7,0-3.6-0.6-4.7-1.6l0.9-1.8c1,0.9,2.7,1.5,3.9,1.5c1.1,0,1.9-0.4,1.9-1.3c0-2.4-6.2-1.1-6.2-5.3c0-2.4,2.1-3.4,4.3-3.4
		C223.6,332.7,225.1,333.2,226.2,333.9z"/>
	<path class="st6" d="M241.4,338.8c0,3.5-2.2,5.9-5.6,5.9c-1.9,0-3.3-0.8-4.2-2.1v6.3h-2.5v-16.1h2.5v2c0.9-1.4,2.3-2.1,4.1-2.1
		C239.1,332.8,241.4,335.2,241.4,338.8z M238.8,338.7c0-2.2-1.5-3.8-3.6-3.8c-2.1,0-3.6,1.6-3.6,3.8c0,2.3,1.5,3.8,3.6,3.8
		C237.3,342.5,238.8,341,238.8,338.7z"/>
	<path class="st6" d="M246.7,329.5c0,0.9-0.6,1.5-1.5,1.5c-0.8,0-1.5-0.6-1.5-1.5c0-0.9,0.6-1.5,1.5-1.5
		C246.1,327.9,246.7,328.6,246.7,329.5z M244,344.6v-11.8h2.5v11.8H244z"/>
	<path class="st6" d="M252.8,335.2c0.8-1.6,2.2-2.4,4.1-2.4v2.4c-2.4-0.1-3.9,1.3-4.1,3.3v6.2h-2.5v-11.8h2.5V335.2z"/>
	<path class="st6" d="M269.4,339.7h-8.9c0.4,1.8,1.8,2.9,3.7,2.9c1.3,0,2.5-0.5,3.3-1.4l1.3,1.4c-1.2,1.3-2.8,2-4.9,2
		c-3.6,0-6-2.4-6-6c0-3.6,2.5-6,6-6C268,332.8,269.7,335.5,269.4,339.7z M267.1,337.9c-0.1-1.9-1.4-3.1-3.3-3.1
		c-1.9,0-3.2,1.2-3.5,3.1H267.1z"/>
	<path class="st6" d="M273.9,343.4c0,0.4-0.2,0.8-0.4,1.2l-1.3,1.9h-1.3l0.8-1.9c-0.4-0.3-0.6-0.7-0.6-1.2c0-0.8,0.6-1.4,1.4-1.4
		C273.3,341.9,273.9,342.5,273.9,343.4z"/>
	<path class="st6" d="M296.6,344.6l0-11.6l-4.9,10H290l-4.9-10v11.6h-2.5v-15.5h3.1l5.1,10.3l5.1-10.3h3.1v15.5H296.6z"/>
	<path class="st6" d="M314.1,338.7c0,3.5-2.5,6-6.1,6c-3.7,0-6.2-2.4-6.2-6c0-3.6,2.5-6,6.2-6C311.6,332.8,314.1,335.2,314.1,338.7z
		 M304.4,338.8c0,2.3,1.5,3.8,3.6,3.8c2.1,0,3.6-1.5,3.6-3.8c0-2.3-1.5-3.8-3.6-3.8C305.8,335,304.4,336.5,304.4,338.8z"/>
	<path class="st6" d="M323.4,343.9c-0.9,0.6-1.9,0.9-2.9,0.9c-1.8,0-3.3-1-3.3-3.4v-6.1h-1.7v-1.9h1.7v-3.2h2.5v3.2h3.5v1.9h-3.5
		v5.6c0,1.2,0.5,1.6,1.3,1.6c0.5,0,1.1-0.2,1.8-0.5L323.4,343.9z"/>
	<path class="st6" d="M328.5,329.5c0,0.9-0.6,1.5-1.5,1.5s-1.5-0.6-1.5-1.5c0-0.9,0.6-1.5,1.5-1.5S328.5,328.6,328.5,329.5z
		 M325.7,344.6v-11.8h2.5v11.8H325.7z"/>
	<path class="st6" d="M334.7,344.6l-4.6-11.8h2.7l3.3,9.3l3.2-9.3h2.5l-4.5,11.8H334.7z"/>
	<path class="st6" d="M350.4,343.2c-0.8,1-2.2,1.5-3.9,1.5c-2.5,0-4.1-1.6-4.1-3.7c0-2.1,1.6-3.5,4.4-3.5h3.6v-0.4
		c0-1.5-1-2.4-2.8-2.4c-1.1,0-2.3,0.4-3.5,1.2l-1-1.8c1.6-1,2.8-1.5,5.1-1.5c3,0,4.7,1.5,4.8,4.1l0,7.7h-2.5V343.2z M350.3,340.5
		v-1.1h-3.2c-1.7,0-2.4,0.4-2.4,1.6c0,1.1,0.9,1.7,2.3,1.7C348.8,342.7,350.2,341.8,350.3,340.5z"/>
	<path class="st6" d="M362.9,343.9c-0.9,0.6-1.9,0.9-2.9,0.9c-1.8,0-3.3-1-3.3-3.4v-6.1h-1.7v-1.9h1.7v-3.2h2.5v3.2h3.5v1.9h-3.5
		v5.6c0,1.2,0.5,1.6,1.3,1.6c0.5,0,1.1-0.2,1.8-0.5L362.9,343.9z"/>
	<path class="st6" d="M375.5,339.7h-8.9c0.4,1.8,1.8,2.9,3.7,2.9c1.3,0,2.5-0.5,3.3-1.4l1.3,1.4c-1.2,1.3-2.8,2-4.9,2
		c-3.6,0-6-2.4-6-6c0-3.6,2.5-6,6-6C374.1,332.8,375.8,335.5,375.5,339.7z M373.3,337.9c-0.1-1.9-1.3-3.1-3.3-3.1
		c-1.9,0-3.2,1.2-3.5,3.1H373.3z"/>
</g>
</svg>
